<?xml version="1.0" encoding="UTF-8" standalone="no"?>
<svg
   width="111.94938"
   height="105.60332"
   viewBox="0 0 111.94938 105.60333"
   fill="none"
   version="1.1"
   id="svg7"
   sodipodi:docname="isbe-logo (1).svg"
   inkscape:version="1.4.2 (f4327f4, 2025-05-13)"
   xmlns:inkscape="http://www.inkscape.org/namespaces/inkscape"
   xmlns:sodipodi="http://sodipodi.sourceforge.net/DTD/sodipodi-0.dtd"
   xmlns="http://www.w3.org/2000/svg"
   xmlns:svg="http://www.w3.org/2000/svg">
  <defs
     id="defs7" />
  <sodipodi:namedview
     id="namedview7"
     pagecolor="#ffffff"
     bordercolor="#000000"
     borderopacity="0.25"
     inkscape:showpageshadow="2"
     inkscape:pageopacity="0.0"
     inkscape:pagecheckerboard="0"
     inkscape:deskcolor="#d1d1d1"
     inkscape:zoom="1.3338235"
     inkscape:cx="209.54796"
     inkscape:cy="52.855568"
     inkscape:window-width="1920"
     inkscape:window-height="1094"
     inkscape:window-x="-11"
     inkscape:window-y="-11"
     inkscape:window-maximized="1"
     inkscape:current-layer="svg7" />
  <path
     d="m 28.660306,101.44407 c -9,-5.012004 -15.276,-14.093004 -15.611,-22.598004 -0.122,-3.092 0.704,-6.776 1.451,-8.988 1.214,-3.6 3.234,-10.54 3.156,-16.593 -0.085,-6.332 -2.246,-13.036 -3.528,-16.47 -0.919,-2.462 -1.832,-6.177 -1.801,-8.926 0.1,-9.054 5.557,-17.453 14.97,-23.0470004 9.366,-5.566 19.955,-6.364 27.642,-2.082 0.009,0.007 0.018,0.01 0.028,0.016 3.008,1.683 4.875,3.438 6.911,5.725 2.508,2.8210004 7.505,7.9880004 12.772,10.9200004 5.522,3.076 12.402,4.56 16.011,5.171 2.68,0.452 5.344,1.016 8.525,2.798 7.715004,4.351 12.606004,13.769 12.759004,24.583 0.156,10.999 -4.178,20.043 -11.887,24.811 -2.061004,1.275 -5.576004,2.574 -8.543004,3.157 -3.609,0.71 -10.477,2.384 -15.937,5.628 -5.257,3.123 -10.213,8.733 -12.593,11.429 -1.689,1.913 -3.997,4.310004 -6.858,5.884004 -7.493,4.123 -18.529,3.552 -27.463,-1.422 z m 21.281,-89.800004 c -4.369,-2.4340004 -11.361,-1.6550004 -17.406,1.939 -6.279,3.73 -9.916,8.979 -9.976,14.395 -0.009,0.851 0.397,3.213 1.16,5.258 1.845,4.949 4.069,12.416 4.169,19.889 0.097,7.187 -1.951,14.829 -3.687,19.977 -0.5,1.483 -0.982,3.886 -0.926,5.335 0.194,4.928 4.56,10.855 10.376,14.093 5.87,3.27 13.075,3.843 17.522,1.397 1.495,-0.823 3.068,-2.503 4.122,-3.697 2.727,-3.085 8.4,-9.508 15.036,-13.451 6.445,-3.83 13.997,-5.852 19.198,-6.875 2.067,-0.405 4.344,-1.33 5.125,-1.816 4.585,-2.837 7.152004,-8.668 7.049004,-15.998 -0.1,-7.093 -3.068004,-13.313 -7.561004,-15.847 -1.611,-0.91 -2.906,-1.234 -5.198,-1.621 -5.204,-0.878 -12.772,-2.689 -19.295,-6.32 -6.254,-3.481 -11.846,-9.022 -15.436,-13.055 -1.489,-1.674 -2.458,-2.59 -4.259,-3.596 z"
     fill="#000000"
     id="path1" />
  <path
     d="m 99.521306,77.714066 c 0.009,-2.418 -0.723,-6.08 -1.78,-8.907 -1.285,-3.434 -3.452,-10.141 -3.543,-16.477 -0.088,-6.099 2.111,-13.245 3.168,-16.679 0.75,-2.437 1.589,-5.65 1.435,-8.904 -0.362,-7.639 -5.441,-15.717 -12.925,-20.8900004 -0.431,-0.299 -1.028,-0.165 -1.285,0.293 l -4.153,7.4050004 c -0.216,0.386 -0.116,0.872 0.241,1.134 4.556,3.366 7.69,8.225 7.893,12.535 0.081,1.701 -0.532,3.917 -0.997,5.435 -1.211,3.933 -3.725,12.114 -3.616,19.812 0.107,7.476 2.336,14.947 4.188,19.896 0.735,1.966 1.138,4.384 1.135,5.304 -0.019,4.578 -2.661,9.056 -7.349,12.603 -0.357,0.271 -0.45,0.77 -0.219,1.153 l 4.369,7.271 c 0.269,0.446 0.86,0.564 1.285,0.262 7.734,-5.545 12.121,-13.143 12.153,-21.246 z"
     fill="#76f276"
     id="path2" />
  <path
     d="m 91.511306,79.921066 c -0.819,0.162 -1.81,0.374 -2.914,0.642 0.244,-0.963 0.372,-1.929 0.375,-2.889 0.003,-0.894 -0.391,-3.26 -1.113,-5.192 -0.254,-0.68 -0.498,-1.368 -0.732,-2.057 0.841,-0.193 1.651,-0.365 2.405,-0.514 2.067,-0.405 4.343,-1.331 5.125,-1.817 0.901,-0.558 1.723,-1.237 2.465,-2.013 0.337,1.034 0.656,1.926 0.916,2.617 0.957,2.559 1.648,5.797 1.776,8.209 -2.086,1.228 -5.444,2.453 -8.3,3.014 z"
     fill="#000000"
     id="path3" />
  <path
     d="m 9.4033062,51.190066 c 0.45,-0.006 0.8249998,-0.346 0.8689998,-0.792 0.576,-5.818 3.024,-10.424 6.946,-12.89 0.722,-0.455 2.955,-1.346 5.1,-1.77 5.198,-1.028 12.744,-3.054 19.183,-6.887 6.192,-3.684 11.652,-9.428 15.142,-13.598 1.007,-1.203 2.805,-2.87 4.075,-3.584 3.674,-2.0600004 9.553,-1.9290004 14.81,0.156 0.41,0.162 0.876,-0.012 1.088,-0.392 l 4.156,-7.4110004 c 0.257,-0.459 0.057,-1.035 -0.425,-1.244 -8.396,-3.668 -17.969,-3.74 -24.646,0 -2.708,1.518 -5.419,4.148 -6.92,5.94 -2.439,2.9140004 -7.312,8.2680004 -12.528,11.3720004 -5.454,3.248 -12.318,4.927 -15.924,5.638 -2.586,0.511 -6.239,1.683 -8.571,3.148 -6.8899998,4.332 -11.07099985,12.042 -11.75599985,21.46 -0.037,0.517 0.376,0.96 0.895,0.954 l 8.50300005,-0.103 z"
     fill="#b88eff"
     id="path4" />
  <path
     d="m 77.964306,93.683066 c -0.232,-0.383 -0.713,-0.536 -1.123,-0.352 -5.432,2.481 -11.123,2.755 -15.042,0.596 -1.62,-0.892 -2.577,-1.82 -4.109,-3.563 -3.477,-3.954 -8.994,-9.43 -15.514,-13.064 -6.255,-3.481 -13.919,-5.326 -19.248,-6.258 -2.211,-0.386 -3.5,-0.729 -5.307,-1.733 l -0.013,-0.006 c -3.777,-2.104 -6.529,-7.134 -7.271,-12.99 -0.056,-0.442 -0.4399998,-0.773 -0.8879998,-0.766 l -8.50900005,0.103 c -0.522,0.006 -0.922,0.458 -0.872,0.975 0.913,9.593 5.56600005,17.702 12.54599985,21.585 l 0.025,0.016 c 3.015,1.673 5.495,2.337 8.516,2.867 3.724,0.651 10.757,2.184 16.023,5.117 5.523,3.076 10.395,8.137 12.81,10.883 1.77,2.013 3.621,3.964004 6.751,5.709004 0.038,0.019 0.072,0.041 0.11,0.06 7.052,3.88 16.455,3.584 25.108,-0.655 0.469,-0.23 0.645,-0.804 0.376,-1.25 l -4.369,-7.270004 z"
     fill="#b88eff"
     id="path5" />
  <path
     d="m 60.871306,11.941066 c -1.238,0.695 -2.999,2.331 -3.987,3.509 -0.394,0.47 -0.797,0.938 -1.204,1.402 -0.519,-0.555 -1.007,-1.094 -1.467,-1.605 -1.488,-1.673 -2.458,-2.59 -4.259,-3.596 -0.003,0 -0.009,-0.007 -0.012,-0.007 -0.939,-0.523 -1.999,-0.894 -3.143,-1.125 0.6,-0.6670004 1.191,-1.3460004 1.742,-2.0000004 1.423,-1.702 3.931,-4.152 6.501,-5.719 2.962,1.667 4.813,3.412 6.83,5.678 0.594,0.667 1.329,1.468 2.173,2.3370004 -1.188,0.24 -2.264,0.614 -3.174,1.126 z"
     fill="#000000"
     id="path6" />
  <path
     d="m 24.204306,73.105066 c -0.5,1.484 -0.982,3.886 -0.925,5.336 0.043,1.14 0.315,2.337 0.775,3.537 -1.141,-0.246 -2.151,-0.44 -2.949,-0.58 -2.868,-0.502 -5.25,-1.125 -8.056,-2.599 -0.112,-3.085 0.71,-6.741 1.451,-8.944 0.26,-0.767 0.554,-1.686 0.857,-2.712 0.748,0.779 1.555,1.418 2.408,1.892 1.78,0.988 3.046,1.321 5.22,1.705 0.628,0.109 1.254,0.227 1.873,0.352 -0.219,0.704 -0.438,1.381 -0.651,2.016 z"
     fill="#000000"
     id="path7" />
</svg>
