<?xml version="1.0" encoding="UTF-8" standalone="no"?>
<svg
   width="211.94901"
   height="205.603"
   viewBox="0 0 211.94901 205.603"
   fill="none"
   version="1.1"
   id="svg7"
   sodipodi:docname="isbe-logo.svg"
   inkscape:version="1.4.2 (f4327f4, 2025-05-13)"
   xmlns:inkscape="http://www.inkscape.org/namespaces/inkscape"
   xmlns:sodipodi="http://sodipodi.sourceforge.net/DTD/sodipodi-0.dtd"
   xmlns="http://www.w3.org/2000/svg"
   xmlns:svg="http://www.w3.org/2000/svg">
  <defs
     id="defs7" />
  <sodipodi:namedview
     id="namedview7"
     pagecolor="#ffffff"
     bordercolor="#000000"
     borderopacity="0.25"
     inkscape:showpageshadow="2"
     inkscape:pageopacity="0.0"
     inkscape:pagecheckerboard="0"
     inkscape:deskcolor="#d1d1d1"
     inkscape:zoom="0.66691177"
     inkscape:cx="684.49835"
     inkscape:cy="36.736494"
     inkscape:window-width="1920"
     inkscape:window-height="1094"
     inkscape:window-x="-11"
     inkscape:window-y="-11"
     inkscape:window-maximized="1"
     inkscape:current-layer="svg7" />
  <path
     d="m 78.661,151.444 c -9.001,-5.012 -15.277,-14.093 -15.612,-22.598 -0.121,-3.092 0.704,-6.776 1.452,-8.988 1.213,-3.6 3.233,-10.54 3.155,-16.593 -0.085,-6.332 -2.245,-13.036 -3.528,-16.47 -0.919,-2.462 -1.832,-6.177 -1.801,-8.926 0.1,-9.054 5.557,-17.453 14.97,-23.047 9.366,-5.566 19.955,-6.364 27.642,-2.082 0.009,0.007 0.019,0.01 0.028,0.016 3.008,1.683 4.875,3.438 6.911,5.725 2.508,2.821 7.505,7.988 12.772,10.92 5.522,3.076 12.402,4.56 16.011,5.171 2.68,0.452 5.345,1.016 8.525,2.798 7.715,4.351 12.606,13.769 12.759,24.583 0.156,10.999 -4.178,20.043 -11.886,24.811 -2.061,1.275 -5.576,2.574 -8.544,3.157 -3.609,0.71 -10.476,2.384 -15.936,5.628 -5.257,3.123 -10.214,8.733 -12.594,11.429 -1.689,1.913 -3.996,4.31 -6.858,5.884 -7.493,4.123 -18.529,3.552 -27.463,-1.422 z m 21.280002,-89.8 C 95.573,59.21 88.58,59.989 82.535,63.583 c -6.279,3.73 -9.916,8.979 -9.976,14.395 -0.009,0.851 0.398,3.213 1.161,5.258 1.845,4.949 4.068,12.416 4.168,19.889 0.097,7.187 -1.951,14.829 -3.687,19.977 -0.5,1.483 -0.982,3.886 -0.925,5.335 0.193,4.928 4.559,10.855 10.376,14.093 5.87,3.27 13.075,3.843 17.522,1.397 1.494,-0.823 3.067,-2.503 4.121,-3.697 2.727,-3.085 8.4,-9.508 15.036,-13.451 6.445,-3.83 13.998,-5.852 19.198,-6.875 2.067,-0.405 4.344,-1.33 5.126,-1.816 4.584,-2.837 7.152,-8.668 7.048,-15.998 -0.1,-7.093 -3.067,-13.313 -7.561,-15.847 -1.611,-0.91 -2.905,-1.234 -5.198,-1.621 -5.203,-0.878 -12.771,-2.689 -19.295,-6.32 -6.254,-3.481 -11.846,-9.022 -15.436,-13.055 -1.488,-1.674 -2.458,-2.59 -4.258998,-3.596 z"
     fill="#ffffff"
     id="path1" />
  <path
     d="m 149.521,127.714 c 0.009,-2.418 -0.723,-6.08 -1.78,-8.907 -1.285,-3.434 -3.452,-10.141 -3.543,-16.477 -0.087,-6.099 2.111,-13.245 3.168,-16.679 0.751,-2.437 1.589,-5.65 1.435,-8.904 -0.362,-7.639 -5.441,-15.717 -12.924,-20.89 -0.432,-0.299 -1.029,-0.165 -1.286,0.293 l -4.153,7.405 c -0.215,0.386 -0.115,0.872 0.241,1.134 4.557,3.366 7.69,8.225 7.893,12.535 0.082,1.701 -0.531,3.917 -0.997,5.435 -1.211,3.933 -3.725,12.114 -3.615,19.812 0.106,7.476 2.336,14.947 4.187,19.896 0.735,1.966 1.138,4.384 1.135,5.304 -0.019,4.578 -2.661,9.056 -7.349,12.603 -0.356,0.271 -0.45,0.77 -0.219,1.153 l 4.369,7.271 c 0.269,0.446 0.86,0.564 1.285,0.262 7.734,-5.545 12.121,-13.143 12.153,-21.246 z"
     fill="#76f276"
     id="path2" />
  <path
     d="m 141.511,129.921 c -0.819,0.162 -1.81,0.374 -2.914,0.642 0.244,-0.963 0.372,-1.929 0.375,-2.889 0.003,-0.894 -0.391,-3.26 -1.113,-5.192 -0.253,-0.68 -0.497,-1.368 -0.732,-2.057 0.841,-0.193 1.651,-0.365 2.405,-0.514 2.067,-0.405 4.344,-1.331 5.125,-1.817 0.901,-0.558 1.724,-1.237 2.465,-2.013 0.337,1.034 0.656,1.926 0.916,2.617 0.957,2.559 1.648,5.797 1.776,8.209 -2.086,1.228 -5.444,2.453 -8.299,3.014 z"
     fill="#ffffff"
     id="path3" />
  <path
     d="m 59.403,101.19 c 0.45,-0.006 0.826,-0.346 0.869,-0.792 0.576,-5.818 3.024,-10.424 6.946,-12.89 0.722,-0.455 2.955,-1.346 5.1,-1.77 5.198,-1.028 12.744,-3.054 19.183,-6.887 6.192,-3.684 11.652,-9.428 15.142,-13.598 1.007,-1.203 2.805,-2.87 4.075,-3.584 3.674,-2.06 9.553,-1.929 14.81,0.156 0.41,0.162 0.876,-0.012 1.089,-0.392 l 4.156,-7.411 c 0.256,-0.459 0.056,-1.035 -0.426,-1.244 -8.396,-3.668 -17.969,-3.74 -24.645,0 -2.709,1.518 -5.42,4.148 -6.921,5.94 -2.439,2.914 -7.311,8.268 -12.528,11.372 -5.453,3.248 -12.318,4.927 -15.923,5.638 -2.587,0.511 -6.239,1.683 -8.572,3.148 -6.89,4.332 -11.071,12.042 -11.755,21.46 -0.038,0.517 0.375,0.96 0.894,0.954 l 8.503,-0.103 z"
     fill="#b88eff"
     id="path4" />
  <path
     d="m 127.964,143.683 c -0.231,-0.383 -0.713,-0.536 -1.123,-0.352 -5.432,2.481 -11.123,2.755 -15.042,0.596 -1.619,-0.892 -2.576,-1.82 -4.109,-3.563 -3.477,-3.954 -8.994,-9.43 -15.514,-13.064 -6.254,-3.481 -13.919,-5.326 -19.248,-6.258 -2.211,-0.386 -3.499,-0.729 -5.307,-1.733 l -0.013,-0.006 c -3.777,-2.104 -6.529,-7.134 -7.27,-12.99 -0.057,-0.442 -0.441,-0.773 -0.888,-0.766 l -8.51,0.103 c -0.522,0.006 -0.922,0.458 -0.872,0.975 0.913,9.593 5.566,17.702 12.546,21.585 l 0.025,0.016 c 3.015,1.673 5.495,2.337 8.516,2.867 3.724,0.651 10.757,2.184 16.024,5.117 5.522,3.076 10.395,8.137 12.809002,10.883 1.769998,2.013 3.620998,3.964 6.751998,5.709 0.037,0.019 0.071,0.041 0.109,0.06 7.052,3.88 16.456,3.584 25.109,-0.655 0.469,-0.23 0.644,-0.804 0.375,-1.25 l -4.369,-7.27 z"
     fill="#b88eff"
     id="path5" />
  <path
     d="m 110.872,61.941 c -1.239,0.695 -3,2.331 -3.988,3.509 -0.394,0.47 -0.797,0.938 -1.204,1.402 -0.519,-0.555 -1.007,-1.094 -1.466,-1.605 -1.489,-1.673 -2.458,-2.59 -4.259998,-3.596 -0.003,0 -0.009,-0.007 -0.012,-0.007 C 99.004,61.121 97.944,60.75 96.799,60.519 c 0.6,-0.667 1.191,-1.346 1.742,-2 1.423002,-1.702 3.931,-4.152 6.501,-5.719 2.962,1.667 4.813,3.412 6.83,5.678 0.594,0.667 1.329,1.468 2.174,2.337 -1.189,0.24 -2.264,0.614 -3.174,1.126 z"
     fill="#ffffff"
     id="path6" />
  <path
     d="m 74.204,123.105 c -0.5,1.484 -0.982,3.886 -0.925,5.336 0.044,1.14 0.316,2.337 0.775,3.537 -1.141,-0.246 -2.151,-0.44 -2.949,-0.58 -2.867,-0.502 -5.25,-1.125 -8.055,-2.599 -0.113,-3.085 0.709,-6.741 1.451,-8.944 0.259,-0.767 0.553,-1.686 0.856,-2.712 0.748,0.779 1.555,1.418 2.408,1.892 1.78,0.988 3.046,1.321 5.22,1.705 0.628,0.109 1.254,0.227 1.873,0.352 -0.219,0.704 -0.438,1.381 -0.65,2.016 z"
     fill="#ffffff"
     id="path7" />
</svg>
