<svg width="166" height="40" viewBox="0 0 166 40" fill="none" xmlns="http://www.w3.org/2000/svg">
<path d="M119.148 0.000244141V39.999H112.482V6.66643C112.482 2.98527 115.467 0.000244141 119.148 0.000244141Z" fill="#FFFFFF"/>
<path d="M92.4832 0.000972575H92.482H74.6381L72.4836 6.66716H85.817V40L92.4832 39.9988V6.66691H99.1503C102.831 6.66691 105.816 3.68189 105.816 0.000732422L92.4832 0.000972575Z" fill="#FFFFFF"/>
<path d="M33.4115 39.9994H40.1576L28.3439 4.55926C27.4369 1.83695 24.8889 0.000610352 22.0194 0.000610352H20.0782H13.3321L0 39.9994H6.74609L10.0786 29.9998H21.1608C24.8419 29.9998 27.827 27.0159 27.827 23.3336H12.3014L20.0782 0.000610352L33.4115 39.9994Z" fill="#FFFFFF"/>
<path d="M138.625 0.000244141L125.293 39.999H132.039L135.371 29.9994H146.452C150.135 29.9994 153.119 27.0156 153.119 23.3332H137.593L145.371 0.000244141H138.625Z" fill="#FFFFFF"/>
<path d="M165.45 39.9988L153.637 4.55865C152.73 1.83634 150.182 0 147.312 0H145.371L158.704 39.9988H165.45Z" fill="#FFFFFF"/>
<path d="M53.5285 33.3329V0H46.8623V33.3329C46.8623 35.9832 48.4124 38.2649 50.6529 39.3404C51.5246 39.7574 52.4975 39.999 53.5282 39.999H71.305L73.5278 33.3329H53.5285Z" fill="#FFFFFF"/>
</svg>
