<?xml version="1.0" encoding="UTF-8" standalone="no"?>
<svg
   width="426.54742"
   height="176"
   viewBox="0 0 426.54742 176"
   fill="none"
   version="1.1"
   id="svg59"
   sodipodi:docname="isbe-logo-texto.svg"
   inkscape:version="1.4.2 (f4327f4, 2025-05-13)"
   xmlns:inkscape="http://www.inkscape.org/namespaces/inkscape"
   xmlns:sodipodi="http://sodipodi.sourceforge.net/DTD/sodipodi-0.dtd"
   xmlns="http://www.w3.org/2000/svg"
   xmlns:svg="http://www.w3.org/2000/svg">
  <defs
     id="defs59" />
  <sodipodi:namedview
     id="namedview59"
     pagecolor="#ffffff"
     bordercolor="#000000"
     borderopacity="0.25"
     inkscape:showpageshadow="2"
     inkscape:pageopacity="0.0"
     inkscape:pagecheckerboard="0"
     inkscape:deskcolor="#d1d1d1"
     inkscape:zoom="0.45648512"
     inkscape:cx="213.58856"
     inkscape:cy="88.721402"
     inkscape:window-width="1920"
     inkscape:window-height="1094"
     inkscape:window-x="-11"
     inkscape:window-y="-11"
     inkscape:window-maximized="1"
     inkscape:current-layer="svg59" />
  <path
     d="m 28.806417,102.556 c -9.046,-5.066 -15.355,-14.247 -15.691,-22.846 -0.122,-3.125 0.707,-6.849 1.459,-9.086 1.219,-3.639 3.25,-10.656 3.171,-16.774 -0.085,-6.403 -2.257,-13.18 -3.545,-16.652 -0.925,-2.489 -1.842,-6.244 -1.811,-9.023 0.101,-9.153 5.586,-17.644 15.047,-23.3 9.414,-5.627 20.057,-6.433 27.783,-2.104 0.01,0.006 0.019,0.009 0.028,0.016 3.024,1.701 4.901,3.475 6.947,5.787 2.521,2.852 7.544,8.076 12.837,11.04 5.551,3.11 12.466,4.61 16.094,5.227 2.693,0.457 5.371,1.027 8.568,2.83 7.754003,4.398 12.671003,13.919 12.825003,24.852 0.157,11.119 -4.2,20.262 -11.948,25.083 -2.071003,1.288 -5.604003,2.602 -8.587003,3.191 -3.628,0.719 -10.53,2.411 -16.018,5.69 -5.284,3.157 -10.266,8.829 -12.658,11.554 -1.698,1.935 -4.017,4.357 -6.893,5.948 -7.532,4.169 -18.624,3.592 -27.605,-1.436 z m 21.39,-90.784 c -4.391,-2.46 -11.419,-1.673 -17.495,1.96 -6.312,3.771 -9.967,9.077 -10.027,14.553 -0.01,0.86 0.399,3.248 1.166,5.315 1.854,5.003 4.089,12.552 4.19,20.108 0.097,7.265 -1.961,14.991 -3.706,20.196 -0.503,1.499 -0.987,3.929 -0.93,5.394 0.194,4.981 4.582,10.973 10.429,14.247 5.9,3.305 13.142,3.885 17.612,1.411 1.502,-0.831 3.083,-2.53 4.142,-3.736 2.741,-3.119 8.443,-9.613 15.113,-13.599 6.478,-3.872 14.069,-5.917 19.297,-6.95 2.077,-0.41 4.366,-1.345 5.151,-1.837 4.608,-2.867 7.189003,-8.762 7.085003,-16.172 -0.1,-7.171 -3.083003,-13.46 -7.600003,-16.021 -1.619,-0.92 -2.92,-1.248 -5.224,-1.639 -5.231,-0.888 -12.837,-2.719 -19.394,-6.389 -6.287,-3.52 -11.907,-9.122 -15.515,-13.199 -1.496,-1.691 -2.471,-2.618 -4.281,-3.635 z"
     fill="#000000"
     id="path1" />
  <path
     d="m 100.03042,78.567 c 0.009,-2.445 -0.726003,-6.147 -1.789003,-9.005 -1.292,-3.472 -3.47,-10.252 -3.561,-16.658 -0.088,-6.165 2.122,-13.39 3.184,-16.862 0.754,-2.464 1.597,-5.712 1.443,-9.002 -0.365,-7.722 -5.47,-15.888 -12.991,-21.119 -0.434,-0.302 -1.034,-0.167 -1.292,0.297 l -4.174,7.486 c -0.217,0.39 -0.117,0.882 0.242,1.146 4.579,3.403 7.729,8.315 7.933,12.673 0.082,1.72 -0.534,3.96 -1.003,5.494 -1.216,3.976 -3.743,12.247 -3.633,20.029 0.107,7.559 2.348,15.111 4.209,20.114 0.738,1.988 1.144,4.433 1.141,5.363 -0.019,4.628 -2.675,9.155 -7.387,12.741 -0.358,0.274 -0.453,0.778 -0.22,1.166 l 4.391,7.35 c 0.27,0.451 0.865,0.57 1.292,0.265 7.773,-5.605 12.183,-13.287 12.215003,-21.478 z"
     fill="#76f276"
     id="path2" />
  <path
     d="m 91.980417,80.797 c -0.824,0.164 -1.82,0.378 -2.93,0.649 0.245,-0.973 0.374,-1.95 0.377,-2.92 0.003,-0.904 -0.393,-3.296 -1.119,-5.249 -0.254,-0.687 -0.499,-1.383 -0.735,-2.08 0.845,-0.195 1.659,-0.368 2.417,-0.52 2.078,-0.409 4.366,-1.345 5.152,-1.836 0.905,-0.564 1.732,-1.251 2.477,-2.036 0.339,1.046 0.66,1.947 0.921,2.647 0.961,2.586 1.656003,5.86 1.785003,8.299 -2.097003,1.241 -5.472003,2.479 -8.342003,3.046 z"
     fill="#000000"
     id="path3" />
  <path
     d="m 9.4514169,51.751 c 0.452,-0.006 0.8290001,-0.349 0.8730001,-0.8 0.579,-5.882 3.04,-10.539 6.982,-13.031 0.726,-0.46 2.97,-1.361 5.126,-1.79 5.224,-1.039 12.809,-3.087 19.281,-6.963 6.224,-3.724 11.712,-9.531 15.22,-13.746 1.012,-1.216 2.819,-2.902 4.095,-3.623 3.694,-2.083 9.603,-1.951 14.887,0.157 0.412,0.164 0.88,-0.013 1.094,-0.397 l 4.177,-7.492 c 0.258,-0.463 0.057,-1.046 -0.427,-1.257 -8.44,-3.709 -18.062,-3.781 -24.772,0 -2.723,1.534 -5.448,4.193 -6.956,6.005 -2.452,2.946 -7.349,8.359 -12.592,11.497 -5.482,3.283 -12.382,4.981 -16.006,5.699 -2.599,0.517 -6.271,1.702 -8.616,3.182 -6.9240001,4.38 -11.12700011,12.175 -11.81500011,21.696 -0.038,0.523 0.377,0.97 0.899,0.964 L 9.4474169,51.748 Z"
     fill="#ffffff"
     id="path4" />
  <path
     d="m 78.364417,94.711 c -0.233,-0.388 -0.717,-0.542 -1.129,-0.356 -5.46,2.508 -11.18,2.785 -15.119,0.601 -1.628,-0.901 -2.59,-1.84 -4.13,-3.601 -3.495,-3.998 -9.04,-9.534 -15.594,-13.207 -6.553,-3.674 -13.99,-5.385 -19.346,-6.327 -2.223,-0.391 -3.518,-0.737 -5.335,-1.752 l -0.012,-0.006 c -3.797,-2.127 -6.563,-7.212 -7.308,-13.132 -0.057,-0.447 -0.4430001,-0.781 -0.8930001,-0.775 L 0.94541689,56.26 c -0.525,0.006 -0.927,0.463 -0.877,0.986 0.918,9.698 5.59500001,17.896 12.61100011,21.822 l 0.025,0.015 c 3.03,1.692 5.523,2.363 8.559,2.899 3.744,0.658 10.813,2.209 16.106,5.173 5.551,3.11 10.449,8.227 12.875,11.003 1.779,2.035 3.64,4.007 6.786,5.772 0.038,0.018 0.073,0.041 0.11,0.059 7.088,3.923 16.54,3.624 25.238,-0.661 0.471,-0.233 0.647,-0.813 0.377,-1.264 l -4.391,-7.35 z"
     fill="#ffffff"
     id="path5" />
  <path
     d="m 61.182417,12.072 c -1.244,0.702 -3.014,2.356 -4.007,3.547 -0.396,0.476 -0.802,0.949 -1.21,1.418 -0.522,-0.561 -1.013,-1.106 -1.475,-1.623 -1.496,-1.691 -2.47,-2.618 -4.281,-3.635 -0.003,0 -0.009,-0.007 -0.012,-0.007 -0.943,-0.529 -2.009,-0.904 -3.159,-1.137 0.603,-0.674 1.197,-1.361 1.75,-2.023 1.431,-1.72 3.952,-4.197 6.535,-5.781 2.977,1.685 4.838,3.45 6.865,5.74 0.597,0.674 1.336,1.484 2.185,2.363 -1.195,0.243 -2.276,0.621 -3.191,1.138 z"
     fill="#000000"
     id="path6" />
  <path
     d="m 24.328417,73.907 c -0.502,1.5 -0.986,3.929 -0.93,5.394 0.044,1.153 0.318,2.363 0.78,3.576 -1.148,-0.249 -2.163,-0.444 -2.964,-0.586 -2.883,-0.507 -5.278,-1.138 -8.098,-2.628 -0.113,-3.119 0.714,-6.815 1.459,-9.042 0.261,-0.775 0.556,-1.705 0.861,-2.741 0.751,0.787 1.562,1.433 2.421,1.912 1.788,0.999 3.061,1.336 5.246,1.723 0.631,0.111 1.26,0.23 1.882,0.356 -0.22,0.713 -0.44,1.396 -0.653,2.039 z"
     fill="#000000"
     id="path7" />
  <path
     d="m 139.46242,125.889 h -2.216 v 17.013 h 2.216 z"
     fill="#000000"
     id="path8" />
  <path
     d="M 153.20942,142.902 V 135.3 c 0,-1.771 -0.421,-3.078 -1.263,-3.923 -0.843,-0.844 -1.987,-1.266 -3.433,-1.266 -0.836,0 -1.596,0.176 -2.288,0.532 -0.692,0.353 -1.204,0.838 -1.54,1.449 v -1.616 h -2.094 v 12.43 h 2.144 v -7.216 c 0,-1.061 0.292,-1.921 0.88,-2.583 0.585,-0.659 1.402,-0.989 2.446,-0.989 0.946,0 1.688,0.299 2.225,0.891 0.538,0.596 0.808,1.465 0.808,2.606 v 7.287 h 2.118 z"
     fill="#000000"
     id="path9" />
  <path
     d="m 156.72442,142.902 h 2.118 v -10.473 h 2.528 v -1.956 h -2.528 v -0.892 c 0,-1.414 0.673,-2.123 2.022,-2.123 h 0.506 v -1.932 h -0.723 c -1.189,0 -2.141,0.344 -2.854,1.027 -0.714,0.684 -1.072,1.702 -1.072,3.053 v 0.87 h -2.191 v 1.957 h 2.191 v 10.472 z"
     fill="#000000"
     id="path10" />
  <path
     d="m 166.37742,130.81 c -0.594,0.387 -1.012,0.926 -1.251,1.616 v -1.956 h -2.093 v 12.429 h 2.143 v -6.903 c 0,-1.109 0.277,-1.991 0.83,-2.643 0.554,-0.653 1.377,-0.977 2.468,-0.977 h 0.481 v -2.149 h -0.604 c -0.723,0 -1.38,0.192 -1.974,0.58 z"
     fill="#000000"
     id="path11" />
  <path
     d="m 177.70642,134.783 c -0.264,0.202 -0.67,0.359 -1.217,0.47 l -3.08,0.579 c -1.075,0.192 -1.946,0.593 -2.612,1.194 -0.666,0.605 -1,1.453 -1,2.546 0,1.093 0.406,2.045 1.217,2.703 0.811,0.659 1.848,0.99 3.118,0.99 0.996,0 1.823,-0.174 2.48,-0.52 0.657,-0.347 1.172,-0.744 1.54,-1.194 0.113,0.529 0.362,0.929 0.748,1.194 0.387,0.264 0.858,0.397 1.421,0.397 0.563,0 1.069,-0.098 1.518,-0.29 v -1.786 c -0.207,0.066 -0.449,0.097 -0.723,0.097 -0.594,0 -0.889,-0.346 -0.889,-1.036 v -6.251 c 0,-1.094 -0.396,-1.995 -1.192,-2.704 -0.795,-0.709 -2.002,-1.061 -3.624,-1.061 -1.461,0 -2.687,0.368 -3.684,1.109 -0.996,0.74 -1.524,1.745 -1.59,3.015 h 2.216 c 0.047,-0.741 0.365,-1.305 0.952,-1.689 0.588,-0.384 1.289,-0.58 2.106,-0.58 0.868,0 1.534,0.17 1.999,0.508 0.466,0.337 0.698,0.787 0.698,1.351 0,0.435 -0.132,0.753 -0.396,0.955 z m 0.399,3.702 c 0,0.854 -0.339,1.55 -1.021,2.086 -0.683,0.539 -1.528,0.81 -2.54,0.81 -0.77,0 -1.39,-0.161 -1.855,-0.482 -0.465,-0.322 -0.698,-0.788 -0.698,-1.399 0,-0.564 0.176,-1.005 0.532,-1.327 0.352,-0.321 0.905,-0.554 1.662,-0.699 l 2.022,-0.388 c 1.043,-0.192 1.678,-0.409 1.901,-0.652 v 2.051 z"
     fill="#000000"
     id="path12" />
  <path
     d="m 188.98742,143.265 c 1.477,0 2.715,-0.366 3.718,-1.097 1.003,-0.731 1.65,-1.742 1.939,-3.028 h -2.216 c -0.242,0.741 -0.65,1.299 -1.229,1.677 -0.578,0.378 -1.307,0.567 -2.19,0.567 -1.173,0 -2.122,-0.356 -2.855,-1.075 -0.732,-0.715 -1.134,-1.685 -1.216,-2.908 h 9.823 c 0.063,-0.482 0.097,-0.891 0.097,-1.232 v -0.072 c 0,-1.191 -0.251,-2.237 -0.757,-3.138 -0.506,-0.901 -1.22,-1.601 -2.144,-2.102 -0.924,-0.497 -1.977,-0.746 -3.165,-0.746 -1.188,0 -2.238,0.274 -3.153,0.819 -0.915,0.548 -1.628,1.31 -2.144,2.293 -0.512,0.983 -0.77,2.118 -0.77,3.403 0,1.286 0.258,2.502 0.77,3.501 0.513,0.998 1.242,1.77 2.179,2.315 0.939,0.549 2.043,0.82 3.309,0.82 z m -2.829,-10.328 c 0.682,-0.643 1.568,-0.964 2.659,-0.964 1.09,0 2.027,0.33 2.709,0.989 0.682,0.658 1.047,1.544 1.097,2.656 h -7.682 c 0.129,-1.141 0.535,-2.035 1.217,-2.678 z"
     fill="#000000"
     id="path13" />
  <path
     d="m 203.97342,140.864 c -0.506,0.362 -1.176,0.542 -2.012,0.542 -0.93,0 -1.7,-0.23 -2.31,-0.687 -0.61,-0.46 -0.946,-1.065 -1.012,-1.821 h -2.166 c 0.016,0.854 0.252,1.613 0.711,2.281 0.459,0.668 1.09,1.181 1.901,1.544 0.811,0.362 1.729,0.542 2.757,0.542 1.524,0 2.747,-0.363 3.671,-1.087 0.924,-0.725 1.383,-1.673 1.383,-2.849 0,-0.964 -0.27,-1.745 -0.808,-2.341 -0.537,-0.595 -1.329,-0.973 -2.37,-1.134 l -2.866,-0.482 c -0.657,-0.113 -1.126,-0.29 -1.396,-0.529 -0.273,-0.243 -0.408,-0.586 -0.408,-1.037 0,-0.564 0.242,-1.014 0.722,-1.351 0.481,-0.337 1.116,-0.508 1.902,-0.508 0.852,0 1.54,0.202 2.072,0.605 0.531,0.404 0.826,0.958 0.889,1.667 h 2.166 c -0.032,-1.254 -0.503,-2.253 -1.408,-2.993 -0.909,-0.741 -2.116,-1.109 -3.625,-1.109 -0.961,0 -1.816,0.157 -2.564,0.469 -0.745,0.315 -1.324,0.76 -1.732,1.339 -0.409,0.58 -0.613,1.239 -0.613,1.979 0,1.881 1.075,3.003 3.225,3.355 l 2.888,0.482 c 0.626,0.114 1.075,0.3 1.349,0.555 0.273,0.258 0.408,0.636 0.408,1.134 0,0.596 -0.251,1.075 -0.757,1.437 z"
     fill="#000000"
     id="path14" />
  <path
     d="m 210.26942,140.442 c 0,0.901 0.258,1.575 0.77,2.026 0.513,0.45 1.229,0.674 2.144,0.674 0.578,0 1.157,-0.088 1.735,-0.265 v -1.956 c -0.465,0.113 -0.883,0.17 -1.251,0.17 -0.434,0 -0.754,-0.114 -0.962,-0.337 -0.207,-0.224 -0.314,-0.596 -0.314,-1.109 v -7.216 h 2.527 v -1.956 h -2.527 v -2.946 h -2.021 v 1.884 c 0,0.451 -0.088,0.766 -0.264,0.942 -0.176,0.177 -0.49,0.265 -0.94,0.265 h -1.084 v 1.811 h 2.19 v 8.013 z"
     fill="#000000"
     id="path15" />
  <path
     d="m 217.44542,130.473 v 12.429 h 2.144 v -6.903 c 0,-1.109 0.276,-1.991 0.829,-2.643 0.554,-0.652 1.377,-0.977 2.468,-0.977 h 0.481 v -2.149 h -0.604 c -0.723,0 -1.38,0.193 -1.974,0.58 -0.594,0.388 -1.012,0.926 -1.251,1.616 v -1.956 h -2.093 z"
     fill="#000000"
     id="path16" />
  <path
     d="m 233.19042,137.691 c 0,1.062 -0.286,1.922 -0.855,2.584 -0.569,0.658 -1.368,0.989 -2.395,0.989 -0.915,0 -1.635,-0.293 -2.157,-0.882 -0.521,-0.586 -0.782,-1.453 -0.782,-2.593 v -7.313 h -2.144 v 7.603 c 0,1.755 0.412,3.056 1.242,3.91 0.826,0.853 1.904,1.279 3.237,1.279 0.899,0 1.688,-0.173 2.37,-0.52 0.682,-0.347 1.191,-0.826 1.528,-1.437 v 1.594 h 2.093 v -12.429 h -2.144 v 7.215 z"
     fill="#000000"
     id="path17" />
  <path
     d="m 246.70942,142.6 c 0.842,-0.441 1.499,-1.037 1.974,-1.787 0.475,-0.746 0.751,-1.588 0.83,-2.52 h -2.191 c -0.176,1.03 -0.582,1.786 -1.216,2.268 -0.635,0.482 -1.418,0.725 -2.348,0.725 -1.236,0 -2.216,-0.407 -2.936,-1.219 -0.72,-0.813 -1.085,-1.944 -1.085,-3.391 0,-1.446 0.362,-2.555 1.085,-3.368 0.723,-0.812 1.7,-1.219 2.936,-1.219 0.914,0 1.694,0.249 2.335,0.747 0.641,0.498 1.05,1.247 1.229,2.243 h 2.191 c -0.082,-0.933 -0.358,-1.777 -0.83,-2.533 -0.475,-0.756 -1.132,-1.352 -1.974,-1.786 -0.842,-0.435 -1.817,-0.653 -2.926,-0.653 -1.236,0 -2.326,0.278 -3.276,0.832 -0.946,0.555 -1.678,1.333 -2.19,2.328 -0.513,0.999 -0.771,2.133 -0.771,3.403 0,1.27 0.258,2.404 0.771,3.403 0.512,0.999 1.241,1.777 2.178,2.341 0.94,0.564 2.027,0.844 3.263,0.844 1.122,0 2.106,-0.22 2.948,-0.665 z"
     fill="#000000"
     id="path18" />
  <path
     d="m 254.71542,127.53 h -2.021 v 1.884 c 0,0.451 -0.088,0.766 -0.264,0.942 -0.176,0.177 -0.49,0.265 -0.94,0.265 h -1.084 v 1.812 h 2.191 v 8.012 c 0,0.901 0.257,1.575 0.77,2.026 0.512,0.45 1.229,0.674 2.144,0.674 0.578,0 1.156,-0.088 1.731,-0.265 v -1.956 c -0.465,0.113 -0.883,0.17 -1.251,0.17 -0.433,0 -0.754,-0.114 -0.961,-0.337 -0.208,-0.224 -0.315,-0.596 -0.315,-1.109 v -7.215 h 2.527 v -1.957 h -2.527 z"
     fill="#000000"
     id="path19" />
  <path
     d="m 259.41142,130.473 v 7.603 c 0,1.754 0.412,3.056 1.239,3.91 0.826,0.853 1.905,1.279 3.237,1.279 0.899,0 1.688,-0.174 2.37,-0.52 0.682,-0.347 1.192,-0.826 1.528,-1.437 v 1.594 h 2.093 v -12.429 h -2.143 v 7.215 c 0,1.062 -0.286,1.922 -0.855,2.584 -0.569,0.658 -1.368,0.989 -2.395,0.989 -0.915,0 -1.635,-0.293 -2.157,-0.882 -0.521,-0.586 -0.782,-1.453 -0.782,-2.593 v -7.313 h -2.144 z"
     fill="#000000"
     id="path20" />
  <path
     d="m 274.96442,135.999 c 0,-1.109 0.276,-1.991 0.829,-2.643 0.554,-0.652 1.377,-0.977 2.468,-0.977 h 0.481 v -2.149 h -0.604 c -0.723,0 -1.38,0.193 -1.974,0.58 -0.594,0.388 -1.012,0.926 -1.251,1.616 v -1.956 h -2.093 v 12.429 h 2.144 v -6.903 z"
     fill="#000000"
     id="path21" />
  <path
     d="m 290.01142,140.127 v -6.251 c 0,-1.094 -0.397,-1.995 -1.192,-2.704 -0.795,-0.709 -2.002,-1.061 -3.624,-1.061 -1.462,0 -2.687,0.368 -3.684,1.109 -0.996,0.74 -1.524,1.745 -1.59,3.015 h 2.216 c 0.047,-0.741 0.364,-1.305 0.952,-1.689 0.588,-0.384 1.289,-0.58 2.106,-0.58 0.868,0 1.534,0.17 1.999,0.508 0.465,0.337 0.698,0.787 0.698,1.351 0,0.435 -0.132,0.753 -0.396,0.955 -0.264,0.202 -0.67,0.359 -1.217,0.469 l -3.08,0.58 c -1.075,0.192 -1.946,0.592 -2.612,1.194 -0.666,0.605 -1,1.453 -1,2.546 0,1.093 0.406,2.045 1.217,2.703 0.811,0.659 1.848,0.99 3.118,0.99 0.996,0 1.823,-0.174 2.48,-0.52 0.657,-0.347 1.172,-0.744 1.54,-1.194 0.113,0.529 0.362,0.929 0.748,1.194 0.387,0.264 0.858,0.397 1.421,0.397 0.563,0 1.069,-0.098 1.518,-0.29 v -1.787 c -0.207,0.067 -0.449,0.098 -0.723,0.098 -0.594,0 -0.889,-0.347 -0.889,-1.037 z m -2.119,-1.642 c 0,0.854 -0.34,1.55 -1.022,2.086 -0.682,0.539 -1.527,0.81 -2.539,0.81 -0.77,0 -1.39,-0.161 -1.855,-0.482 -0.465,-0.322 -0.698,-0.788 -0.698,-1.399 0,-0.564 0.176,-1.005 0.532,-1.327 0.352,-0.321 0.905,-0.554 1.662,-0.699 l 2.021,-0.388 c 1.044,-0.192 1.679,-0.409 1.902,-0.652 v 2.051 z"
     fill="#000000"
     id="path22" />
  <path
     d="m 306.76842,141.116 v 1.786 h 2.093 v -17.013 h -2.119 v 6.323 c -0.402,-0.658 -0.983,-1.175 -1.744,-1.544 -0.764,-0.368 -1.528,-0.554 -2.298,-0.554 -1.204,0 -2.25,0.274 -3.143,0.819 -0.89,0.548 -1.575,1.32 -2.046,2.316 -0.475,0.998 -0.711,2.139 -0.711,3.428 0,1.288 0.246,2.429 0.736,3.428 0.49,0.998 1.172,1.773 2.046,2.328 0.874,0.554 1.889,0.832 3.046,0.832 0.836,0 1.628,-0.186 2.383,-0.555 0.754,-0.368 1.339,-0.901 1.757,-1.591 z m -6.752,-1.049 c -0.682,-0.813 -1.025,-1.944 -1.025,-3.39 0,-1.447 0.346,-2.556 1.034,-3.368 0.692,-0.813 1.654,-1.22 2.889,-1.22 0.754,0 1.433,0.186 2.034,0.555 0.603,0.368 1.072,0.901 1.408,1.591 0.336,0.693 0.506,1.506 0.506,2.438 0,1.415 -0.365,2.54 -1.097,3.369 -0.729,0.828 -1.682,1.241 -2.854,1.241 -1.251,0 -2.219,-0.407 -2.901,-1.219 z"
     fill="#000000"
     id="path23" />
  <path
     d="m 323.21342,136.169 v -0.072 c 0,-1.191 -0.252,-2.237 -0.758,-3.138 -0.506,-0.901 -1.219,-1.601 -2.144,-2.102 -0.924,-0.497 -1.977,-0.746 -3.165,-0.746 -1.188,0 -2.238,0.274 -3.153,0.819 -0.914,0.548 -1.628,1.31 -2.143,2.293 -0.513,0.983 -0.77,2.118 -0.77,3.403 0,1.286 0.257,2.502 0.77,3.501 0.512,0.998 1.241,1.77 2.178,2.315 0.94,0.549 2.043,0.82 3.31,0.82 1.477,0 2.716,-0.366 3.718,-1.097 1.003,-0.731 1.651,-1.742 1.94,-3.028 h -2.216 c -0.242,0.741 -0.651,1.298 -1.229,1.676 -0.579,0.379 -1.308,0.568 -2.191,0.568 -1.173,0 -2.122,-0.356 -2.854,-1.075 -0.733,-0.715 -1.135,-1.685 -1.217,-2.908 h 9.823 c 0.063,-0.482 0.098,-0.892 0.098,-1.232 z m -9.92,-0.554 c 0.128,-1.141 0.534,-2.035 1.216,-2.678 0.682,-0.643 1.568,-0.964 2.659,-0.964 1.091,0 2.028,0.33 2.71,0.989 0.682,0.658 1.046,1.544 1.097,2.656 h -7.682 z"
     fill="#000000"
     id="path24" />
  <path
     d="m 332.08742,142.565 c 0.987,0.467 2.131,0.7 3.432,0.7 1.122,0 2.138,-0.215 3.046,-0.64 0.905,-0.425 1.622,-1.021 2.144,-1.786 0.521,-0.766 0.782,-1.639 0.782,-2.619 0,-1.304 -0.33,-2.344 -0.987,-3.125 -0.657,-0.781 -1.694,-1.323 -3.105,-1.629 l -2.961,-0.652 c -0.915,-0.192 -1.581,-0.492 -1.999,-0.892 -0.418,-0.403 -0.626,-0.973 -0.626,-1.714 0,-0.838 0.293,-1.496 0.88,-1.978 0.585,-0.482 1.449,-0.725 2.587,-0.725 1.138,0 2.002,0.287 2.685,0.857 0.682,0.57 1.078,1.427 1.191,2.571 h 2.31 c -0.082,-1.705 -0.673,-3.031 -1.782,-3.983 -1.107,-0.948 -2.6,-1.424 -4.479,-1.424 -1.141,0 -2.144,0.208 -3.008,0.627 -0.868,0.419 -1.534,0.993 -1.999,1.727 -0.466,0.731 -0.698,1.55 -0.698,2.451 0,1.175 0.324,2.139 0.974,2.896 0.651,0.756 1.61,1.272 2.876,1.543 l 3.153,0.7 c 0.977,0.208 1.672,0.539 2.084,0.989 0.409,0.451 0.613,1.062 0.613,1.834 0,0.933 -0.333,1.667 -1,2.196 -0.666,0.532 -1.552,0.797 -2.659,0.797 -1.251,0 -2.276,-0.337 -3.071,-1.014 -0.795,-0.675 -1.201,-1.576 -1.216,-2.704 h -2.289 c 0,1.144 0.274,2.146 0.818,3.006 0.547,0.86 1.31,1.525 2.301,1.991 z"
     fill="#000000"
     id="path25" />
  <path
     d="m 352.43042,130.86 c -0.925,-0.497 -1.978,-0.746 -3.166,-0.746 -1.188,0 -2.238,0.274 -3.152,0.819 -0.915,0.548 -1.629,1.311 -2.144,2.294 -0.512,0.983 -0.77,2.117 -0.77,3.402 0,1.286 0.258,2.502 0.77,3.501 0.512,0.999 1.238,1.77 2.178,2.315 0.94,0.549 2.043,0.82 3.31,0.82 1.477,0 2.716,-0.366 3.719,-1.097 1.002,-0.731 1.65,-1.742 1.939,-3.028 h -2.216 c -0.242,0.741 -0.651,1.299 -1.229,1.677 -0.578,0.378 -1.308,0.567 -2.191,0.567 -1.172,0 -2.122,-0.356 -2.854,-1.075 -0.729,-0.715 -1.135,-1.685 -1.216,-2.908 h 9.822 c 0.063,-0.482 0.098,-0.891 0.098,-1.232 v -0.072 c 0,-1.191 -0.252,-2.237 -0.758,-3.138 -0.506,-0.901 -1.219,-1.601 -2.144,-2.102 z m -7.019,4.755 c 0.129,-1.141 0.534,-2.036 1.216,-2.678 0.682,-0.643 1.569,-0.964 2.659,-0.964 1.091,0 2.028,0.33 2.71,0.989 0.682,0.658 1.047,1.544 1.097,2.656 h -7.679 z"
     fill="#000000"
     id="path26" />
  <path
     d="m 357.50042,130.473 v 12.429 h 2.143 v -6.903 c 0,-1.109 0.277,-1.991 0.83,-2.643 0.553,-0.652 1.377,-0.977 2.468,-0.977 h 0.48 v -2.149 h -0.603 c -0.723,0 -1.38,0.193 -1.974,0.58 -0.594,0.388 -1.012,0.926 -1.251,1.616 v -1.956 h -2.093 z"
     fill="#000000"
     id="path27" />
  <path
     d="m 371.22342,136.894 -1.327,3.475 -1.348,-3.475 -2.455,-6.421 h -2.408 l 5.105,12.429 h 2.191 l 5.129,-12.429 h -2.407 z"
     fill="#000000"
     id="path28" />
  <path
     d="m 379.84242,130.473 h -2.143 v 12.429 h 2.143 z"
     fill="#000000"
     id="path29" />
  <path
     d="m 378.78342,125.766 c -0.402,0 -0.748,0.142 -1.034,0.422 -0.286,0.28 -0.434,0.63 -0.434,1.049 0,0.419 0.141,0.769 0.421,1.049 0.28,0.281 0.629,0.423 1.047,0.423 0.418,0 0.767,-0.145 1.047,-0.435 0.279,-0.29 0.421,-0.637 0.421,-1.037 0,-0.4 -0.142,-0.769 -0.421,-1.049 -0.28,-0.28 -0.629,-0.422 -1.047,-0.422 z"
     fill="#000000"
     id="path30" />
  <path
     d="m 388.26842,132.092 c 0.915,0 1.694,0.249 2.336,0.747 0.641,0.498 1.05,1.248 1.229,2.243 h 2.191 c -0.082,-0.932 -0.359,-1.777 -0.83,-2.533 -0.475,-0.756 -1.132,-1.351 -1.974,-1.786 -0.843,-0.435 -1.817,-0.652 -2.927,-0.652 -1.235,0 -2.329,0.277 -3.275,0.831 -0.946,0.555 -1.678,1.333 -2.191,2.329 -0.512,0.999 -0.77,2.133 -0.77,3.402 0,1.27 0.258,2.404 0.77,3.403 0.513,0.999 1.239,1.777 2.179,2.341 0.939,0.564 2.027,0.845 3.262,0.845 1.122,0 2.106,-0.221 2.949,-0.665 0.842,-0.441 1.499,-1.037 1.974,-1.787 0.474,-0.746 0.751,-1.588 0.829,-2.52 h -2.19 c -0.176,1.03 -0.582,1.786 -1.217,2.268 -0.635,0.482 -1.417,0.725 -2.348,0.725 -1.235,0 -2.216,-0.407 -2.936,-1.219 -0.719,-0.813 -1.084,-1.944 -1.084,-3.391 0,-1.446 0.361,-2.555 1.084,-3.368 0.723,-0.812 1.701,-1.219 2.936,-1.219 z"
     fill="#000000"
     id="path31" />
  <path
     d="m 397.34342,125.766 c -0.402,0 -0.748,0.142 -1.034,0.422 -0.286,0.28 -0.433,0.63 -0.433,1.049 0,0.419 0.141,0.769 0.421,1.049 0.28,0.281 0.628,0.423 1.046,0.423 0.419,0 0.767,-0.145 1.047,-0.435 0.28,-0.29 0.421,-0.637 0.421,-1.037 0,-0.4 -0.141,-0.769 -0.421,-1.049 -0.28,-0.28 -0.628,-0.422 -1.047,-0.422 z"
     fill="#000000"
     id="path32" />
  <path
     d="m 398.40642,130.473 h -2.144 v 12.429 h 2.144 z"
     fill="#000000"
     id="path33" />
  <path
     d="m 410.23742,130.946 c -0.955,-0.555 -2.059,-0.832 -3.31,-0.832 -1.251,0 -2.354,0.274 -3.31,0.819 -0.955,0.548 -1.694,1.32 -2.216,2.316 -0.521,0.998 -0.782,2.139 -0.782,3.428 0,1.288 0.261,2.429 0.782,3.428 0.522,0.998 1.261,1.773 2.216,2.328 0.956,0.554 2.059,0.832 3.31,0.832 1.251,0 2.377,-0.274 3.323,-0.82 0.946,-0.548 1.681,-1.32 2.203,-2.315 0.522,-0.996 0.783,-2.149 0.783,-3.45 0,-1.301 -0.261,-2.426 -0.783,-3.416 -0.522,-0.989 -1.26,-1.761 -2.216,-2.315 z m -0.289,9.108 c -0.745,0.819 -1.754,1.232 -3.021,1.232 -1.267,0 -2.272,-0.41 -3.008,-1.232 -0.739,-0.819 -1.106,-1.947 -1.106,-3.377 0,-1.431 0.367,-2.534 1.106,-3.356 0.739,-0.819 1.741,-1.232 3.008,-1.232 1.267,0 2.276,0.41 3.021,1.232 0.748,0.819 1.119,1.938 1.119,3.356 0,1.417 -0.374,2.558 -1.119,3.377 z"
     fill="#000000"
     id="path34" />
  <path
     d="m 422.14342,135.854 -2.866,-0.482 c -0.657,-0.113 -1.125,-0.29 -1.396,-0.529 -0.273,-0.243 -0.408,-0.586 -0.408,-1.037 0,-0.564 0.242,-1.014 0.723,-1.351 0.48,-0.337 1.115,-0.508 1.901,-0.508 0.852,0 1.54,0.202 2.072,0.605 0.531,0.404 0.826,0.958 0.889,1.667 h 2.166 c -0.032,-1.254 -0.503,-2.253 -1.408,-2.993 -0.909,-0.741 -2.116,-1.109 -3.625,-1.109 -0.961,0 -1.816,0.157 -2.564,0.469 -0.745,0.315 -1.324,0.76 -1.732,1.339 -0.409,0.58 -0.613,1.239 -0.613,1.979 0,1.881 1.075,3.003 3.225,3.355 l 2.888,0.482 c 0.626,0.114 1.075,0.3 1.349,0.555 0.273,0.258 0.408,0.636 0.408,1.134 0,0.596 -0.251,1.075 -0.757,1.437 -0.506,0.362 -1.176,0.542 -2.012,0.542 -0.93,0 -1.7,-0.23 -2.31,-0.687 -0.61,-0.46 -0.946,-1.065 -1.012,-1.821 h -2.166 c 0.016,0.854 0.252,1.613 0.71,2.281 0.459,0.668 1.091,1.182 1.902,1.544 0.811,0.362 1.729,0.542 2.757,0.542 1.524,0 2.747,-0.363 3.671,-1.087 0.924,-0.725 1.383,-1.673 1.383,-2.848 0,-0.965 -0.27,-1.746 -0.808,-2.341 -0.537,-0.596 -1.329,-0.974 -2.37,-1.135 z"
     fill="#000000"
     id="path35" />
  <path
     d="m 146.49042,163.038 c 0.754,-0.305 1.336,-0.768 1.745,-1.386 0.408,-0.618 0.612,-1.339 0.612,-2.161 0,-0.886 -0.204,-1.667 -0.612,-2.341 -0.409,-0.678 -0.991,-1.204 -1.745,-1.582 -0.754,-0.378 -1.622,-0.567 -2.599,-0.567 h -6.645 v 17.014 h 7.053 c 1.525,0 2.738,-0.435 3.637,-1.305 0.899,-0.869 1.348,-2.026 1.348,-3.475 0,-1.078 -0.242,-1.982 -0.723,-2.716 -0.481,-0.731 -1.172,-1.225 -2.071,-1.484 z m -7.028,-6.106 h 4.164 c 0.915,0 1.635,0.233 2.157,0.7 0.522,0.466 0.782,1.118 0.782,1.956 0,0.838 -0.264,1.453 -0.795,1.944 -0.531,0.492 -1.245,0.738 -2.144,0.738 h -4.164 v -5.335 z m 6.729,12.357 c -0.537,0.533 -1.273,0.797 -2.203,0.797 h -4.526 v -5.961 h 4.526 c 0.946,0 1.685,0.265 2.216,0.797 0.531,0.533 0.795,1.264 0.795,2.196 0,0.933 -0.27,1.642 -0.808,2.171 z"
     fill="#000000"
     id="path36" />
  <path
     d="m 153.90842,155.001 h -2.144 v 17.014 h 2.144 z"
     fill="#000000"
     id="path37" />
  <path
     d="m 165.73942,160.058 c -0.956,-0.555 -2.059,-0.832 -3.31,-0.832 -1.251,0 -2.357,0.274 -3.31,0.819 -0.955,0.548 -1.694,1.32 -2.216,2.316 -0.521,0.999 -0.782,2.139 -0.782,3.428 0,1.288 0.261,2.429 0.782,3.428 0.522,0.999 1.261,1.774 2.216,2.328 0.956,0.555 2.059,0.832 3.31,0.832 1.251,0 2.377,-0.274 3.323,-0.819 0.946,-0.548 1.681,-1.32 2.203,-2.316 0.522,-0.999 0.783,-2.149 0.783,-3.45 0,-1.301 -0.261,-2.426 -0.783,-3.415 -0.522,-0.99 -1.26,-1.762 -2.216,-2.316 z m -0.286,9.108 c -0.748,0.82 -1.754,1.232 -3.021,1.232 -1.266,0 -2.272,-0.409 -3.011,-1.232 -0.739,-0.819 -1.106,-1.947 -1.106,-3.377 0,-1.431 0.367,-2.533 1.106,-3.356 0.739,-0.822 1.741,-1.232 3.011,-1.232 1.27,0 2.276,0.41 3.021,1.232 0.745,0.82 1.119,1.938 1.119,3.356 0,1.418 -0.374,2.558 -1.119,3.377 z"
     fill="#000000"
     id="path38" />
  <path
     d="m 176.46742,161.202 c 0.914,0 1.694,0.248 2.335,0.746 0.641,0.498 1.05,1.248 1.229,2.244 h 2.191 c -0.082,-0.933 -0.359,-1.777 -0.83,-2.534 -0.475,-0.756 -1.132,-1.351 -1.974,-1.786 -0.842,-0.435 -1.817,-0.652 -2.926,-0.652 -1.236,0 -2.329,0.277 -3.276,0.832 -0.946,0.554 -1.678,1.332 -2.19,2.328 -0.513,0.999 -0.771,2.133 -0.771,3.403 0,1.269 0.258,2.404 0.771,3.402 0.512,0.999 1.238,1.777 2.178,2.341 0.94,0.564 2.027,0.845 3.263,0.845 1.122,0 2.106,-0.221 2.948,-0.665 0.842,-0.444 1.499,-1.037 1.974,-1.787 0.475,-0.746 0.751,-1.588 0.83,-2.52 h -2.191 c -0.176,1.03 -0.582,1.786 -1.217,2.268 -0.635,0.482 -1.417,0.725 -2.348,0.725 -1.235,0 -2.216,-0.406 -2.935,-1.219 -0.723,-0.813 -1.085,-1.944 -1.085,-3.39 0,-1.447 0.362,-2.556 1.085,-3.368 0.723,-0.813 1.7,-1.22 2.935,-1.22 z"
     fill="#000000"
     id="path39" />
  <path
     d="m 195.15042,159.585 h -2.769 l -5.778,5.744 v -10.328 h -2.143 v 17.014 h 2.143 v -4.055 l 2.069,-1.979 4.24,6.034 h 2.502 l -5.297,-7.505 z"
     fill="#000000"
     id="path40" />
  <path
     d="m 202.08442,161.202 c 0.914,0 1.694,0.248 2.335,0.746 0.641,0.498 1.05,1.248 1.229,2.244 h 2.191 c -0.082,-0.933 -0.358,-1.777 -0.83,-2.534 -0.474,-0.756 -1.131,-1.351 -1.974,-1.786 -0.842,-0.435 -1.817,-0.652 -2.926,-0.652 -1.235,0 -2.326,0.277 -3.275,0.832 -0.947,0.554 -1.679,1.332 -2.191,2.328 -0.513,0.999 -0.77,2.133 -0.77,3.403 0,1.269 0.257,2.404 0.77,3.402 0.512,0.999 1.241,1.777 2.178,2.341 0.94,0.564 2.027,0.845 3.263,0.845 1.122,0 2.106,-0.221 2.948,-0.665 0.842,-0.441 1.499,-1.037 1.974,-1.787 0.475,-0.746 0.751,-1.588 0.83,-2.52 h -2.191 c -0.176,1.03 -0.581,1.786 -1.216,2.268 -0.635,0.482 -1.418,0.725 -2.348,0.725 -1.236,0 -2.216,-0.406 -2.936,-1.219 -0.723,-0.813 -1.085,-1.944 -1.085,-3.39 0,-1.447 0.362,-2.556 1.085,-3.368 0.723,-0.813 1.7,-1.22 2.936,-1.22 z"
     fill="#000000"
     id="path41" />
  <path
     d="m 216.00042,159.223 c -0.818,0 -1.569,0.17 -2.251,0.507 -0.682,0.337 -1.191,0.804 -1.528,1.399 v -6.131 h -2.143 v 17.013 h 2.143 v -7.215 c 0,-1.061 0.293,-1.921 0.881,-2.583 0.584,-0.659 1.398,-0.989 2.442,-0.989 0.946,0 1.688,0.293 2.225,0.879 0.538,0.589 0.808,1.452 0.808,2.593 v 7.312 h 2.119 v -7.602 c 0,-1.771 -0.422,-3.078 -1.264,-3.923 -0.842,-0.844 -1.986,-1.266 -3.432,-1.266 z"
     fill="#000000"
     id="path42" />
  <path
     d="m 233.26242,169.239 v -6.251 c 0,-1.093 -0.396,-1.994 -1.191,-2.703 -0.795,-0.709 -2.002,-1.062 -3.624,-1.062 -1.462,0 -2.687,0.368 -3.684,1.109 -0.996,0.74 -1.524,1.745 -1.59,3.015 h 2.216 c 0.047,-0.74 0.364,-1.304 0.952,-1.689 0.585,-0.387 1.289,-0.579 2.106,-0.579 0.868,0 1.534,0.17 1.999,0.507 0.465,0.337 0.698,0.788 0.698,1.351 0,0.435 -0.132,0.754 -0.396,0.955 -0.264,0.202 -0.67,0.359 -1.217,0.47 l -3.08,0.579 c -1.075,0.193 -1.946,0.593 -2.612,1.194 -0.666,0.602 -1,1.453 -1,2.546 0,1.093 0.406,2.045 1.217,2.703 0.811,0.659 1.848,0.99 3.118,0.99 0.996,0 1.823,-0.173 2.48,-0.52 0.657,-0.347 1.172,-0.744 1.54,-1.194 0.113,0.529 0.362,0.929 0.748,1.194 0.387,0.265 0.858,0.397 1.421,0.397 0.563,0 1.069,-0.098 1.518,-0.29 v -1.786 c -0.207,0.066 -0.449,0.097 -0.723,0.097 -0.594,0 -0.889,-0.346 -0.889,-1.036 z m -2.118,-1.642 c 0,0.854 -0.34,1.55 -1.022,2.086 -0.682,0.539 -1.527,0.81 -2.539,0.81 -0.771,0 -1.39,-0.161 -1.855,-0.482 -0.465,-0.322 -0.698,-0.788 -0.698,-1.399 0,-0.564 0.176,-1.005 0.531,-1.327 0.353,-0.321 0.906,-0.554 1.663,-0.699 l 2.021,-0.388 c 1.044,-0.192 1.679,-0.409 1.902,-0.652 v 2.051 z"
     fill="#000000"
     id="path43" />
  <path
     d="m 237.57242,154.881 c -0.402,0 -0.748,0.142 -1.034,0.422 -0.286,0.281 -0.434,0.631 -0.434,1.05 0,0.419 0.142,0.768 0.421,1.049 0.28,0.28 0.629,0.422 1.047,0.422 0.418,0 0.767,-0.145 1.047,-0.435 0.279,-0.29 0.421,-0.636 0.421,-1.036 0,-0.401 -0.142,-0.769 -0.421,-1.05 -0.28,-0.28 -0.629,-0.422 -1.047,-0.422 z"
     fill="#000000"
     id="path44" />
  <path
     d="m 238.63442,159.585 h -2.144 v 12.43 h 2.144 z"
     fill="#000000"
     id="path45" />
  <path
     d="m 247.49242,159.223 c -0.836,0 -1.597,0.176 -2.288,0.532 -0.692,0.353 -1.204,0.838 -1.541,1.45 v -1.617 h -2.093 v 12.43 h 2.144 v -7.215 c 0,-1.062 0.292,-1.922 0.88,-2.584 0.584,-0.658 1.398,-0.989 2.442,-0.989 0.946,0 1.688,0.299 2.225,0.891 0.538,0.596 0.808,1.466 0.808,2.606 v 7.288 h 2.119 v -7.603 c 0,-1.771 -0.421,-3.078 -1.264,-3.923 -0.842,-0.844 -1.986,-1.266 -3.432,-1.266 z"
     fill="#000000"
     id="path46" />
  <path
     d="m 268.55742,161.324 c -0.402,-0.658 -0.984,-1.175 -1.744,-1.543 -0.764,-0.369 -1.528,-0.555 -2.301,-0.555 -1.204,0 -2.251,0.274 -3.143,0.819 -0.89,0.548 -1.572,1.32 -2.047,2.316 -0.474,0.999 -0.71,2.139 -0.71,3.428 0,1.288 0.245,2.429 0.735,3.428 0.491,0.999 1.173,1.774 2.047,2.328 0.873,0.555 1.889,0.832 3.045,0.832 0.833,0 1.629,-0.186 2.383,-0.555 0.754,-0.368 1.339,-0.901 1.757,-1.594 v 1.787 h 2.094 v -17.014 h -2.119 v 6.323 z m -0.974,7.83 c -0.729,0.828 -1.682,1.244 -2.854,1.244 -1.251,0 -2.219,-0.406 -2.902,-1.219 -0.682,-0.813 -1.024,-1.944 -1.024,-3.39 0,-1.446 0.346,-2.555 1.034,-3.368 0.688,-0.813 1.653,-1.22 2.889,-1.22 0.754,0 1.433,0.186 2.033,0.555 0.604,0.369 1.072,0.901 1.408,1.594 0.337,0.693 0.506,1.506 0.506,2.439 0,1.415 -0.364,2.539 -1.097,3.368 z"
     fill="#000000"
     id="path47" />
  <path
     d="m 282.12842,159.973 c -0.924,-0.498 -1.977,-0.747 -3.165,-0.747 -1.189,0 -2.238,0.274 -3.153,0.819 -0.915,0.548 -1.628,1.311 -2.144,2.294 -0.512,0.983 -0.77,2.114 -0.77,3.403 0,1.288 0.258,2.501 0.77,3.5 0.513,0.999 1.239,1.771 2.178,2.316 0.94,0.545 2.044,0.819 3.31,0.819 1.478,0 2.716,-0.366 3.719,-1.1 1.002,-0.731 1.65,-1.742 1.939,-3.027 h -2.216 c -0.242,0.74 -0.651,1.298 -1.229,1.676 -0.578,0.378 -1.307,0.567 -2.191,0.567 -1.172,0 -2.121,-0.359 -2.854,-1.075 -0.729,-0.715 -1.135,-1.685 -1.216,-2.908 h 9.822 c 0.063,-0.482 0.098,-0.891 0.098,-1.232 v -0.072 c 0,-1.191 -0.252,-2.237 -0.758,-3.138 -0.506,-0.901 -1.219,-1.601 -2.143,-2.102 z m -7.019,4.754 c 0.129,-1.14 0.534,-2.035 1.216,-2.678 0.682,-0.643 1.569,-0.964 2.66,-0.964 1.09,0 2.027,0.331 2.709,0.989 0.682,0.659 1.047,1.544 1.097,2.656 h -7.679 z"
     fill="#000000"
     id="path48" />
  <path
     d="m 291.84042,172.015 h 10.329 v -2.026 h -8.113 v -5.769 h 7.56 v -2.026 h -7.56 v -5.167 h 8.113 v -2.026 h -10.329 z"
     fill="#000000"
     id="path49" />
  <path
     d="m 311.22542,164.966 -2.867,-0.482 c -0.657,-0.113 -1.125,-0.289 -1.396,-0.529 -0.273,-0.242 -0.408,-0.586 -0.408,-1.036 0,-0.564 0.242,-1.015 0.723,-1.352 0.48,-0.337 1.115,-0.507 1.901,-0.507 0.852,0 1.54,0.201 2.072,0.605 0.531,0.403 0.826,0.957 0.889,1.666 h 2.166 c -0.032,-1.254 -0.503,-2.252 -1.408,-2.993 -0.909,-0.74 -2.116,-1.109 -3.624,-1.109 -0.962,0 -1.817,0.158 -2.565,0.47 -0.745,0.315 -1.324,0.759 -1.732,1.339 -0.409,0.579 -0.613,1.238 -0.613,1.978 0,1.881 1.075,3.003 3.225,3.356 l 2.888,0.482 c 0.626,0.113 1.075,0.299 1.349,0.554 0.273,0.259 0.408,0.637 0.408,1.135 0,0.595 -0.251,1.074 -0.757,1.436 -0.506,0.363 -1.176,0.542 -2.012,0.542 -0.93,0 -1.7,-0.23 -2.31,-0.687 -0.61,-0.46 -0.946,-1.065 -1.012,-1.821 h -2.166 c 0.016,0.854 0.252,1.613 0.711,2.281 0.458,0.668 1.09,1.182 1.901,1.544 0.811,0.362 1.729,0.542 2.757,0.542 1.524,0 2.747,-0.362 3.671,-1.087 0.924,-0.725 1.383,-1.673 1.383,-2.848 0,-0.964 -0.27,-1.746 -0.808,-2.341 -0.537,-0.596 -1.329,-0.974 -2.37,-1.134 z"
     fill="#000000"
     id="path50" />
  <path
     d="m 326.18642,160.058 c -0.89,-0.555 -1.94,-0.832 -3.144,-0.832 -0.785,0 -1.565,0.189 -2.335,0.567 -0.77,0.378 -1.348,0.904 -1.735,1.582 v -1.787 h -2.094 V 176 h 2.144 v -5.718 c 0.418,0.674 1,1.194 1.745,1.556 0.745,0.362 1.537,0.542 2.37,0.542 1.138,0 2.15,-0.277 3.033,-0.832 0.883,-0.554 1.565,-1.329 2.046,-2.328 0.481,-0.999 0.723,-2.139 0.723,-3.428 0,-1.289 -0.236,-2.426 -0.71,-3.415 -0.475,-0.99 -1.157,-1.762 -2.046,-2.316 z m -0.447,9.121 c -0.691,0.813 -1.662,1.219 -2.913,1.219 -1.173,0 -2.122,-0.412 -2.855,-1.244 -0.732,-0.829 -1.097,-1.95 -1.097,-3.368 0,-1.418 0.368,-2.515 1.107,-3.343 0.739,-0.829 1.685,-1.242 2.841,-1.242 1.251,0 2.223,0.407 2.914,1.22 0.692,0.813 1.034,1.934 1.034,3.368 0,1.433 -0.345,2.577 -1.034,3.39 z"
     fill="#000000"
     id="path51" />
  <path
     d="m 340.90942,169.239 v -6.251 c 0,-1.093 -0.396,-1.994 -1.191,-2.703 -0.796,-0.709 -2.003,-1.062 -3.625,-1.062 -1.461,0 -2.687,0.368 -3.683,1.109 -0.997,0.74 -1.525,1.745 -1.591,3.015 h 2.216 c 0.047,-0.74 0.365,-1.304 0.952,-1.689 0.585,-0.387 1.289,-0.579 2.106,-0.579 0.868,0 1.534,0.17 2,0.507 0.465,0.337 0.697,0.788 0.697,1.351 0,0.435 -0.132,0.754 -0.396,0.955 -0.264,0.202 -0.669,0.359 -1.216,0.47 l -3.08,0.579 c -1.075,0.193 -1.946,0.593 -2.613,1.194 -0.666,0.602 -0.999,1.453 -0.999,2.546 0,1.093 0.405,2.045 1.216,2.703 0.811,0.659 1.849,0.99 3.118,0.99 0.997,0 1.824,-0.173 2.48,-0.52 0.657,-0.347 1.173,-0.744 1.541,-1.194 0.113,0.529 0.361,0.929 0.748,1.194 0.386,0.265 0.858,0.397 1.421,0.397 0.562,0 1.068,-0.098 1.518,-0.29 v -1.786 c -0.208,0.066 -0.45,0.097 -0.723,0.097 -0.594,0 -0.89,-0.346 -0.89,-1.036 z m -2.119,-1.642 c 0,0.854 -0.339,1.55 -1.021,2.086 -0.682,0.539 -1.528,0.81 -2.54,0.81 -0.77,0 -1.389,-0.161 -1.854,-0.482 -0.466,-0.322 -0.698,-0.788 -0.698,-1.399 0,-0.564 0.176,-1.005 0.531,-1.327 0.352,-0.321 0.905,-0.554 1.663,-0.699 l 2.021,-0.388 c 1.043,-0.192 1.678,-0.409 1.902,-0.652 v 2.051 z"
     fill="#000000"
     id="path52" />
  <path
     d="m 347.68742,157.137 c 0.135,-0.186 0.323,-0.277 0.565,-0.277 0.242,0 0.497,0.082 0.77,0.242 l 0.554,0.315 c 0.32,0.177 0.622,0.316 0.902,0.41 0.28,0.098 0.591,0.145 0.927,0.145 0.723,0 1.289,-0.246 1.697,-0.737 0.409,-0.492 0.613,-1.153 0.613,-1.991 h -1.782 c 0,0.321 -0.069,0.576 -0.204,0.759 -0.135,0.186 -0.324,0.277 -0.566,0.277 -0.192,0 -0.44,-0.088 -0.745,-0.265 l -0.553,-0.289 c -0.673,-0.388 -1.286,-0.58 -1.83,-0.58 -0.722,0 -1.288,0.249 -1.697,0.747 -0.409,0.497 -0.613,1.165 -0.613,2.003 h 1.757 c 0,-0.321 0.069,-0.576 0.205,-0.759 z"
     fill="#000000"
     id="path53" />
  <path
     d="m 350.05942,159.223 c -0.836,0 -1.597,0.176 -2.288,0.532 -0.692,0.353 -1.204,0.838 -1.54,1.45 v -1.617 h -2.094 v 12.43 h 2.144 v -7.215 c 0,-1.062 0.292,-1.922 0.88,-2.584 0.585,-0.658 1.399,-0.989 2.442,-0.989 0.947,0 1.688,0.299 2.226,0.891 0.537,0.596 0.808,1.466 0.808,2.606 v 7.288 h 2.118 v -7.603 c 0,-1.771 -0.421,-3.078 -1.263,-3.923 -0.843,-0.844 -1.987,-1.266 -3.433,-1.266 z"
     fill="#000000"
     id="path54" />
  <path
     d="m 367.32242,169.239 v -6.251 c 0,-1.093 -0.396,-1.994 -1.191,-2.703 -0.795,-0.709 -2.002,-1.062 -3.624,-1.062 -1.462,0 -2.688,0.368 -3.684,1.109 -0.997,0.74 -1.525,1.745 -1.591,3.015 h 2.216 c 0.047,-0.74 0.365,-1.304 0.953,-1.689 0.584,-0.387 1.288,-0.579 2.106,-0.579 0.867,0 1.534,0.17 1.999,0.507 0.465,0.337 0.698,0.788 0.698,1.351 0,0.435 -0.133,0.754 -0.397,0.955 -0.264,0.202 -0.669,0.359 -1.216,0.47 l -3.08,0.579 c -1.075,0.193 -1.946,0.593 -2.612,1.194 -0.667,0.602 -1,1.453 -1,2.546 0,1.093 0.405,2.045 1.216,2.703 0.811,0.659 1.849,0.99 3.119,0.99 0.996,0 1.823,-0.173 2.48,-0.52 0.657,-0.347 1.172,-0.744 1.54,-1.194 0.113,0.529 0.361,0.929 0.748,1.194 0.387,0.265 0.858,0.397 1.421,0.397 0.562,0 1.068,-0.098 1.518,-0.29 v -1.786 c -0.208,0.066 -0.45,0.097 -0.723,0.097 -0.594,0 -0.89,-0.346 -0.89,-1.036 z m -2.118,-1.642 c 0,0.854 -0.34,1.55 -1.022,2.086 -0.682,0.539 -1.528,0.81 -2.54,0.81 -0.77,0 -1.389,-0.161 -1.854,-0.482 -0.466,-0.322 -0.698,-0.788 -0.698,-1.399 0,-0.564 0.176,-1.005 0.531,-1.327 0.352,-0.321 0.905,-0.554 1.663,-0.699 l 2.021,-0.388 c 1.044,-0.192 1.678,-0.409 1.902,-0.652 v 2.051 z"
     fill="#000000"
     id="path55" />
  <path
     d="m 155.69642,22.587 h -19.174 v 83.887 h 19.174 z"
     fill="#000000"
     id="path56" />
  <path
     d="m 215.74142,90.755 c -2.873,2.011 -6.745,3.013 -11.617,3.013 -5.526,0 -10.021,-1.305 -13.488,-3.91 -3.467,-2.606 -5.419,-6.081 -5.849,-10.426 h -19.501 c 0.107,5.756 1.788,10.86 5.038,15.312 3.25,4.455 7.745,7.927 13.488,10.426 5.74,2.495 12.24,3.746 19.501,3.746 10.942,0 19.689,-2.549 26.243,-7.656 6.554,-5.104 9.832,-11.834 9.832,-20.199 0,-6.516 -1.842,-11.809 -5.526,-15.883 -3.684,-4.07 -9.1,-6.651 -16.25,-7.738 l -19.825,-3.094 c -3.794,-0.652 -6.5,-1.654 -8.125,-3.012 -1.625,-1.358 -2.436,-3.283 -2.436,-5.781 0,-3.148 1.354,-5.703 4.061,-7.656 2.706,-1.954 6.39,-2.934 11.051,-2.934 4.983,0 9.018,1.198 12.108,3.583 3.087,2.391 4.794,5.595 5.121,9.609 h 19.5 c -0.323,-8.576 -3.737,-15.394 -10.237,-20.441 -6.5,-5.051 -15.113,-7.575 -25.838,-7.575 -6.934,0 -13.057,1.116 -18.363,3.34 -5.309,2.228 -9.426,5.35 -12.35,9.367 -2.926,4.02 -4.388,8.69 -4.388,14.008 0,6.408 1.896,11.594 5.687,15.555 3.79,3.967 9.426,6.544 16.901,7.738 l 19.337,3.094 c 3.681,0.652 6.309,1.685 7.88,3.094 1.569,1.411 2.358,3.475 2.358,6.191 0,3.475 -1.437,6.216 -4.306,8.226 z"
     fill="#000000"
     id="path57" />
  <path
     d="m 294.12942,108.919 c 7.801,0 14.679,-1.875 20.638,-5.621 5.957,-3.746 10.536,-8.985 13.733,-15.718 3.194,-6.733 4.794,-14.44 4.794,-23.13 0,-8.689 -1.572,-16.37 -4.712,-23.05 -3.143,-6.679 -7.695,-11.891 -13.651,-15.637 -5.96,-3.746 -13.001,-5.621 -21.126,-5.621 -4.985,0 -9.861,1.087 -14.626,3.258 -4.768,2.174 -8.449,5.268 -11.051,9.285 V 0 h -19.174 v 106.477 h 18.363 V 95.563 c 2.706,4.345 6.5,7.657 11.375,9.938 4.875,2.281 10.021,3.421 15.437,3.421 z m -20.557,-24.597 c -4.388,-4.777 -6.582,-11.403 -6.582,-19.872 0,-8.469 2.194,-14.795 6.582,-19.628 4.388,-4.83 10.046,-7.25 16.983,-7.25 6.937,0 12.972,2.363 17.143,7.086 4.168,4.723 6.255,11.32 6.255,19.792 0,8.473 -2.087,15.095 -6.255,19.872 -4.171,4.779 -9.889,7.168 -17.143,7.168 -7.255,0 -12.595,-2.389 -16.983,-7.168 z"
     fill="#000000"
     id="path58" />
  <path
     d="m 421.26742,39.529 c -3.521,-6.192 -8.45,-10.968 -14.79,-14.336 -6.336,-3.365 -13.626,-5.051 -21.855,-5.051 -8.229,0 -15.358,1.847 -21.694,5.539 -6.337,3.693 -11.269,8.879 -14.789,15.555 -3.521,6.68 -5.281,14.311 -5.281,22.887 0,9.014 1.76,16.887 5.281,23.617 3.52,6.736 8.502,11.948 14.949,15.637 6.444,3.689 13.947,5.539 22.506,5.539 10.401,0 19.067,-2.47 26.001,-7.41 6.931,-4.941 11.482,-11.809 13.651,-20.606 h -19.501 c -1.301,3.91 -3.655,6.95 -7.069,9.121 -3.414,2.174 -7.666,3.258 -12.755,3.258 -6.934,0 -12.489,-2.007 -16.657,-6.027 -4.171,-4.017 -6.475,-9.503 -6.905,-16.453 h 63.538 c 0.43,-2.606 0.65,-5.807 0.65,-9.61 v -0.324 c 0,-8.034 -1.763,-15.149 -5.28,-21.34 z m -58.905,16.777 c 0.541,-6.516 2.845,-11.62 6.906,-15.312 4.061,-3.69 9.235,-5.539 15.518,-5.539 6.283,0 11.781,1.9 15.845,5.702 4.061,3.803 6.148,8.854 6.255,15.149 z"
     fill="#000000"
     id="path59" />
</svg>
