<?xml version="1.0" encoding="UTF-8" standalone="no"?>
<!-- Created with Inkscape (http://www.inkscape.org/) -->

<svg
   width="112.85735mm"
   height="46.566669mm"
   viewBox="0 0 112.85735 46.566669"
   version="1.1"
   id="svg1"
   inkscape:version="1.4.2 (f4327f4, 2025-05-13)"
   sodipodi:docname="isbe-logo.svg"
   xmlns:inkscape="http://www.inkscape.org/namespaces/inkscape"
   xmlns:sodipodi="http://sodipodi.sourceforge.net/DTD/sodipodi-0.dtd"
   xmlns="http://www.w3.org/2000/svg"
   xmlns:svg="http://www.w3.org/2000/svg">
  <sodipodi:namedview
     id="namedview1"
     pagecolor="#ffffff"
     bordercolor="#000000"
     borderopacity="0.25"
     inkscape:showpageshadow="2"
     inkscape:pageopacity="0.0"
     inkscape:pagecheckerboard="0"
     inkscape:deskcolor="#d1d1d1"
     inkscape:document-units="mm"
     inkscape:zoom="0.72426347"
     inkscape:cx="362.43717"
     inkscape:cy="511.55417"
     inkscape:window-width="1920"
     inkscape:window-height="1094"
     inkscape:window-x="-11"
     inkscape:window-y="-11"
     inkscape:window-maximized="1"
     inkscape:current-layer="layer1" />
  <defs
     id="defs1" />
  <g
     inkscape:label="Capa 1"
     inkscape:groupmode="layer"
     id="layer1"
     transform="translate(-9.2387639,-13.16592)">
    <path
       d="m 16.860468,40.300528 c -2.39342,-1.34038 -4.06268,-3.76978 -4.15158,-6.04467 -0.0323,-0.82682 0.18706,-1.81213 0.38603,-2.404 0.32253,-0.96282 0.85989,-2.8194 0.83899,-4.438125 -0.0225,-1.694127 -0.59716,-3.487209 -0.93795,-4.405842 -0.24474,-0.658548 -0.48736,-1.652058 -0.47916,-2.387335 0.0267,-2.421732 1.47797,-4.668309 3.98119,-6.164792 2.49079,-1.48881 5.30675,-1.702064 7.35092,-0.556683 0.003,0.0016 0.005,0.0024 0.007,0.004 0.8001,0.45032 1.29672,0.919691 1.83806,1.531408 0.66701,0.754592 1.99601,2.13651 3.39645,2.921 1.4687,0.822854 3.2983,1.219729 4.25821,1.382977 0.71252,0.120914 1.42107,0.271727 2.26695,0.748771 2.05158,1.163637 3.35253,3.682735 3.39328,6.575425 0.0415,2.941896 -1.11125,5.360986 -3.16124,6.636546 -0.54796,0.34078 -1.48273,0.68844 -2.27198,0.84428 -0.95991,0.19024 -2.78606,0.63791 -4.2381,1.50548 -1.39805,0.83529 -2.71621,2.33601 -3.34909,3.057 -0.44926,0.5117 -1.06283,1.15279 -1.82378,1.57374 -1.99284,1.10305 -4.9276,0.95038 -7.30382,-0.37994 z m 5.65944,-24.019933 c -1.16179,-0.650875 -3.02128,-0.442648 -4.62889,0.518584 -1.67005,0.997743 -2.6371,2.401623 -2.65298,3.850481 -0.003,0.227542 0.10557,0.859367 0.30851,1.40626 0.49054,1.323711 1.08188,3.32105 1.1086,5.320242 0.0257,1.922196 -0.51885,3.966366 -0.98054,5.343526 -0.13309,0.39661 -0.26115,1.03928 -0.24607,1.42716 0.0513,1.31789 1.21232,2.90327 2.75934,3.76952 1.56104,0.87445 3.47716,1.02791 4.65984,0.37333 0.39741,-0.21987 0.81571,-0.6694 1.09591,-0.98849 0.72522,-0.82523 2.23388,-2.54344 3.99865,-3.59806 1.71397,-1.02447 3.72242,-1.56554 5.10566,-1.83886 0.54954,-0.10848 1.15517,-0.35586 1.36287,-0.48604 1.2192,-0.75856 1.90209,-2.31828 1.87457,-4.278838 -0.0265,-1.897327 -0.81571,-3.561291 -2.01083,-4.238889 -0.42836,-0.243417 -0.77258,-0.3302 -1.38218,-0.433652 -1.38404,-0.23495 -3.39646,-0.719402 -5.13133,-1.690423 -1.66344,-0.931333 -3.1504,-2.413529 -4.10501,-3.492236 -0.39582,-0.447675 -0.65379,-0.692679 -1.13268,-0.96176 z"
       fill="#000000"
       id="path2"
       style="stroke-width:0.264583" />
    <path
       d="m 35.705148,33.953438 c 0.002,-0.64691 -0.19209,-1.62639 -0.47334,-2.38257 -0.34184,-0.91864 -0.9181,-2.71251 -0.94218,-4.407431 -0.0233,-1.631421 0.56145,-3.542771 0.84243,-4.461404 0.1995,-0.651934 0.42254,-1.5113 0.3818,-2.381779 -0.0966,-2.043113 -1.44727,-4.2037 -3.4372,-5.587736 -0.11483,-0.0799 -0.27358,-0.04419 -0.34185,0.07858 l -1.10437,1.98067 c -0.0574,0.103188 -0.031,0.233363 0.064,0.303213 1.21153,0.900377 2.04497,2.20001 2.09894,3.3528 0.0217,0.455348 -0.14129,1.048014 -0.26538,1.453885 -0.32173,1.051984 -0.99033,3.240352 -0.96123,5.29934 0.0283,1.999992 0.62125,3.998122 1.11363,5.321832 0.19527,0.52599 0.30269,1.1729 0.30189,1.41869 -0.005,1.22476 -0.70776,2.42253 -1.95447,3.37133 -0.0947,0.0725 -0.11986,0.20584 -0.0582,0.3085 l 1.16178,1.94469 c 0.0714,0.11932 0.22887,0.15081 0.34185,0.0701 2.0566,-1.48299 3.22341,-3.51552 3.23188,-5.68272 z"
       fill="#76f276"
       id="path3"
       style="stroke-width:0.264583" />
    <path
       d="m 33.575258,34.543458 c -0.21802,0.0434 -0.48155,0.10001 -0.77523,0.17172 0.0648,-0.25744 0.099,-0.51594 0.0997,-0.77259 8e-4,-0.23944 -0.10398,-0.87206 -0.29606,-1.38879 -0.0672,-0.18177 -0.13203,-0.36592 -0.19447,-0.55034 0.22357,-0.0516 0.43894,-0.0974 0.63949,-0.13758 0.54981,-0.10822 1.15518,-0.35587 1.36314,-0.48604 0.23945,-0.14896 0.45826,-0.33073 0.65537,-0.53843 0.0897,0.27676 0.17463,0.51515 0.24368,0.70035 0.25427,0.68422 0.43815,1.55046 0.47228,2.19578 -0.55483,0.32835 -1.4478,0.6559 -2.20715,0.80592 z"
       fill="#000000"
       id="path4"
       style="stroke-width:0.264583" />
    <path
       d="m 11.739458,26.858372 c 0.11959,-0.0016 0.21934,-0.09234 0.23098,-0.211666 0.15319,-1.55628 0.80433,-2.788444 1.84732,-3.447786 0.19209,-0.121708 0.78581,-0.360098 1.35625,-0.473604 1.38219,-0.275167 3.38905,-0.816769 5.10144,-1.842294 1.64676,-0.985308 3.0988,-2.521743 4.02695,-3.636962 0.26776,-0.321733 0.74586,-0.767821 1.08347,-0.95885 0.97737,-0.550863 2.5408,-0.515938 3.93885,0.0418 0.10901,0.04339 0.23284,-0.0034 0.28946,-0.105039 l 1.10516,-1.982259 c 0.0683,-0.122502 0.0151,-0.276754 -0.11297,-0.332581 -2.23309,-0.98134 -4.77891,-1.00039 -6.55426,0 -0.72046,0.405871 -1.44145,1.109398 -1.84044,1.588823 -0.64876,0.779462 -1.94443,2.211652 -3.33164,3.041914 -1.45044,0.868627 -3.27607,1.31789 -4.23492,1.507861 -0.68765,0.136789 -1.6592,0.450321 -2.27965,0.841904 -1.83197,1.158875 -2.9440195,3.221302 -3.1260495,5.7404 -0.0101,0.138377 0.0998,0.256646 0.23786,0.255058 l 2.2611295,-0.02752 z"
       fill="#b88eff"
       id="path5"
       style="stroke-width:0.264583" />
    <path
       d="m 29.972688,38.224868 c -0.0617,-0.10265 -0.18971,-0.1434 -0.29872,-0.0942 -1.44462,0.66358 -2.95804,0.73687 -4.00023,0.15902 -0.43074,-0.23839 -0.68527,-0.48684 -1.09273,-0.95277 -0.92472,-1.0578 -2.39183,-2.52253 -4.12591,-3.49435 -1.73382,-0.97208 -3.70152,-1.42478 -5.11863,-1.67402 -0.58817,-0.10345 -0.93081,-0.195 -1.41155,-0.46355 l -0.003,-0.002 c -1.00462,-0.56276 -1.73646,-1.90817 -1.93357,-3.474504 -0.0151,-0.118269 -0.11721,-0.20664 -0.23628,-0.205052 l -2.2629795,0.02752 c -0.1389,0.0016 -0.24527,0.122502 -0.23204,0.260879 0.24289,2.565927 1.4803495,4.734977 3.3366595,5.773737 l 0.007,0.004 c 0.80169,0.44767 1.46129,0.62521 2.26457,0.76702 0.9906,0.1741 2.86094,0.58447 4.26138,1.36869 1.4687,0.82286 2.76463,2.17673 3.40651,2.91121 0.47069,0.53843 0.96308,1.06019 1.79546,1.52718 0.01,0.005 0.0193,0.0109 0.0291,0.0156 1.87537,1.03796 4.37621,0.95885 6.67756,-0.17489 0.12462,-0.0617 0.17118,-0.21511 0.0997,-0.33443 l -1.16178,-1.94469 z"
       fill="#b88eff"
       id="path6"
       style="stroke-width:0.264583" />
    <path
       d="m 25.426618,16.35997 c -0.32914,0.185738 -0.79746,0.623359 -1.06019,0.938477 -0.10477,0.125942 -0.21219,0.25109 -0.32014,0.37518 -0.13812,-0.148432 -0.26803,-0.29263 -0.39026,-0.429419 -0.39582,-0.447411 -0.65352,-0.692679 -1.13268,-0.961761 -8e-4,0 -0.002,-0.0019 -0.003,-0.0019 -0.2495,-0.139964 -0.53155,-0.239183 -0.83582,-0.300831 0.15955,-0.178329 0.31671,-0.360098 0.46302,-0.535252 0.37862,-0.455083 1.04564,-1.110456 1.72905,-1.529556 0.78767,0.445823 1.28006,0.912812 1.81637,1.518708 0.15796,0.178332 0.35348,0.392644 0.57811,0.625211 -0.31617,0.06429 -0.60219,0.164308 -0.84428,0.301095 z"
       fill="#000000"
       id="path7"
       style="stroke-width:0.264583" />
    <path
       d="m 15.675658,32.720478 c -0.13282,0.39661 -0.26087,1.03955 -0.24606,1.42717 0.0116,0.30506 0.0841,0.62521 0.20638,0.94615 -0.30374,-0.0659 -0.5723,-0.11774 -0.78423,-0.15505 -0.76279,-0.13441 -1.39647,-0.3011 -2.14259,-0.69533 -0.0299,-0.82523 0.18891,-1.80313 0.38602,-2.39236 0.0691,-0.20505 0.14711,-0.45111 0.22781,-0.72522 0.1987,0.20823 0.41328,0.37915 0.64056,0.50588 0.47307,0.26432 0.80989,0.35349 1.388,0.45588 0.16695,0.0294 0.33337,0.0609 0.49795,0.0942 -0.0582,0.18838 -0.11642,0.36936 -0.17278,0.53949 z"
       fill="#000000"
       id="path8"
       style="stroke-width:0.264583" />
    <path
       d="m 46.138198,46.474048 h -0.58632 v 4.50136 h 0.58632 z"
       fill="#000000"
       id="path9"
       style="stroke-width:0.264583" />
    <path
       d="m 49.775428,50.975408 v -2.01136 c 0,-0.46858 -0.11139,-0.81439 -0.33417,-1.03796 -0.22304,-0.22331 -0.52573,-0.33497 -0.90831,-0.33497 -0.2212,0 -0.42228,0.0466 -0.60537,0.14076 -0.18309,0.0934 -0.31856,0.22172 -0.40746,0.38338 v -0.42756 h -0.55404 v 3.2885 h 0.56727 v -1.90897 c 0,-0.28072 0.0773,-0.50826 0.23283,-0.68341 0.15478,-0.17436 0.37095,-0.26168 0.64717,-0.26168 0.2503,0 0.44662,0.0791 0.5887,0.23575 0.14235,0.15769 0.21378,0.38761 0.21378,0.6895 v 1.92802 h 0.56039 z"
       fill="#000000"
       id="path10"
       style="stroke-width:0.264583" />
    <path
       d="m 50.705438,50.975408 h 0.56039 v -2.77098 h 0.66886 v -0.51753 h -0.66886 v -0.23601 c 0,-0.37412 0.17806,-0.56171 0.53498,-0.56171 h 0.13388 v -0.51117 h -0.19129 c -0.31459,0 -0.56647,0.091 -0.75512,0.27173 -0.18891,0.18097 -0.28364,0.45032 -0.28364,0.80777 v 0.23019 h -0.5797 v 0.51779 h 0.5797 v 2.77071 z"
       fill="#000000"
       id="path11"
       style="stroke-width:0.264583" />
    <path
       d="m 53.259458,47.776068 c -0.15716,0.10239 -0.26776,0.245 -0.33099,0.42756 v -0.51752 h -0.55378 v 3.28851 h 0.56701 v -1.82642 c 0,-0.29343 0.0733,-0.52679 0.2196,-0.69956 0.14658,-0.17251 0.36433,-0.25823 0.65299,-0.25823 h 0.12727 v -0.56859 h -0.15981 c -0.19129,0 -0.36513,0.0508 -0.52229,0.15345 z"
       fill="#000000"
       id="path12"
       style="stroke-width:0.264583" />
    <path
       d="m 56.256928,48.827258 c -0.0699,0.0534 -0.17727,0.095 -0.322,0.12409 l -0.81492,0.15346 c -0.28443,0.0508 -0.51488,0.15689 -0.69109,0.31591 -0.17621,0.16007 -0.26458,0.38444 -0.26458,0.67363 0,0.28919 0.10742,0.54107 0.32199,0.71517 0.21458,0.17436 0.48895,0.26193 0.82498,0.26193 0.26352,0 0.48233,-0.046 0.65616,-0.13758 0.17383,-0.0918 0.31009,-0.19685 0.40746,-0.31591 0.0299,0.13996 0.0958,0.2458 0.19791,0.31591 0.10239,0.0699 0.22701,0.10504 0.37597,0.10504 0.14896,0 0.28284,-0.0259 0.40164,-0.0767 v -0.47281 c -0.0548,0.0177 -0.1188,0.0259 -0.19129,0.0259 -0.15717,0 -0.23522,-0.0915 -0.23522,-0.27411 v -1.65391 c 0,-0.28945 -0.10477,-0.52784 -0.31538,-0.71543 -0.21035,-0.18759 -0.5297,-0.28072 -0.95885,-0.28072 -0.38656,0 -0.71094,0.0974 -0.97473,0.29342 -0.26352,0.19579 -0.40322,0.4617 -0.42069,0.79772 h 0.58632 c 0.0124,-0.19606 0.0966,-0.34529 0.25188,-0.44689 0.15558,-0.1016 0.34105,-0.15345 0.55722,-0.15345 0.22966,0 0.40587,0.045 0.5289,0.1344 0.1233,0.0892 0.18468,0.20823 0.18468,0.35746 0,0.11509 -0.0349,0.19923 -0.10478,0.25267 z m 0.10556,0.97948 c 0,0.22596 -0.0897,0.41011 -0.27013,0.55193 -0.18072,0.14261 -0.40429,0.21431 -0.67205,0.21431 -0.20373,0 -0.36777,-0.0426 -0.4908,-0.1278 -0.12303,-0.0849 -0.18468,-0.20822 -0.18468,-0.36988 0,-0.14923 0.0466,-0.26591 0.14076,-0.35111 0.0931,-0.0849 0.23945,-0.14657 0.43974,-0.18494 l 0.53499,-0.10266 c 0.27596,-0.0508 0.44397,-0.10821 0.50297,-0.17251 v 0.54266 z"
       fill="#000000"
       id="path13"
       style="stroke-width:0.264583" />
    <path
       d="m 59.241688,51.071448 c 0.39079,0 0.71834,-0.0968 0.98372,-0.29024 0.26538,-0.19342 0.43656,-0.46091 0.51303,-0.80116 h -0.58632 c -0.064,0.19605 -0.17198,0.34343 -0.32517,0.4437 -0.15293,0.10002 -0.34581,0.15002 -0.57944,0.15002 -0.31035,0 -0.56144,-0.0942 -0.75538,-0.28443 -0.19368,-0.18917 -0.30004,-0.44582 -0.32174,-0.7694 h 2.599 c 0.0167,-0.12753 0.0257,-0.23575 0.0257,-0.32597 v -0.0191 c 0,-0.31512 -0.0664,-0.59187 -0.20029,-0.83026 -0.13388,-0.23839 -0.32279,-0.4236 -0.56727,-0.55616 -0.24447,-0.13176 -0.52308,-0.19737 -0.8374,-0.19737 -0.31433,0 -0.59214,0.0725 -0.83423,0.21669 -0.2421,0.14499 -0.43075,0.3466 -0.56727,0.60669 -0.13547,0.26009 -0.20373,0.56039 -0.20373,0.90038 0,0.34025 0.0683,0.66198 0.20373,0.9263 0.13573,0.26406 0.32861,0.46832 0.57653,0.61251 0.24844,0.14526 0.54054,0.21696 0.8755,0.21696 z m -0.74851,-2.73261 c 0.18045,-0.17013 0.41487,-0.25506 0.70353,-0.25506 0.2884,0 0.53631,0.0873 0.71676,0.26167 0.18044,0.1741 0.27702,0.40852 0.29025,0.70273 h -2.03253 c 0.0341,-0.30189 0.14155,-0.53842 0.32199,-0.70855 z"
       fill="#000000"
       id="path14"
       style="stroke-width:0.264583" />
    <path
       d="m 63.206738,50.436188 c -0.13388,0.0958 -0.31115,0.1434 -0.53235,0.1434 -0.24606,0 -0.44979,-0.0608 -0.61118,-0.18177 -0.1614,-0.1217 -0.2503,-0.28178 -0.26776,-0.4818 h -0.57309 c 0.004,0.22595 0.0667,0.42677 0.18812,0.60351 0.12144,0.17674 0.2884,0.31248 0.50297,0.40852 0.21458,0.0958 0.45747,0.1434 0.72946,0.1434 0.40322,0 0.72681,-0.096 0.97128,-0.2876 0.24448,-0.19182 0.36592,-0.44265 0.36592,-0.7538 0,-0.25506 -0.0714,-0.46169 -0.21378,-0.61939 -0.14208,-0.15742 -0.35163,-0.25744 -0.62706,-0.30003 l -0.7583,-0.12753 c -0.17383,-0.0299 -0.29792,-0.0767 -0.36936,-0.13997 -0.0722,-0.0643 -0.10795,-0.15504 -0.10795,-0.27437 0,-0.14923 0.064,-0.26829 0.19103,-0.35745 0.12727,-0.0894 0.29528,-0.13441 0.50324,-0.13441 0.22543,0 0.40746,0.0534 0.54822,0.16007 0.14049,0.10689 0.21854,0.25347 0.23521,0.44106 h 0.57309 c -0.008,-0.33179 -0.13309,-0.5961 -0.37253,-0.7919 -0.24051,-0.19605 -0.55986,-0.29342 -0.95912,-0.29342 -0.25426,0 -0.48048,0.0415 -0.67839,0.12409 -0.19712,0.0833 -0.35031,0.20108 -0.45826,0.35428 -0.10821,0.15346 -0.16219,0.32782 -0.16219,0.52361 0,0.49768 0.28443,0.79454 0.85328,0.88768 l 0.76412,0.12752 c 0.16563,0.0302 0.28443,0.0794 0.35692,0.14685 0.0722,0.0683 0.10795,0.16827 0.10795,0.30004 0,0.15769 -0.0664,0.28442 -0.20029,0.3802 z"
       fill="#000000"
       id="path15"
       style="stroke-width:0.264583" />
    <path
       d="m 64.872548,50.324528 c 0,0.23839 0.0683,0.41672 0.20373,0.53579 0.13573,0.11932 0.32518,0.17859 0.56727,0.17859 0.15293,0 0.30612,-0.0233 0.45905,-0.0701 v -0.51778 c -0.12303,0.0302 -0.23363,0.0452 -0.33099,0.0452 -0.11483,0 -0.1995,-0.0302 -0.25453,-0.0892 -0.0548,-0.0593 -0.0831,-0.15769 -0.0831,-0.29368 v -1.90897 h 0.6686 v -0.51753 h -0.6686 v -0.77946 h -0.53472 v 0.49848 c 0,0.11932 -0.0233,0.20267 -0.0699,0.24923 -0.0466,0.0468 -0.12965,0.0701 -0.24871,0.0701 h -0.28681 v 0.47916 h 0.57944 v 2.1201 z"
       fill="#000000"
       id="path16"
       style="stroke-width:0.264583" />
    <path
       d="m 66.771198,47.686898 v 3.28851 h 0.56727 v -1.82642 c 0,-0.29342 0.073,-0.52678 0.21934,-0.69929 0.14658,-0.17251 0.36433,-0.2585 0.65299,-0.2585 h 0.12727 v -0.56859 h -0.15981 c -0.1913,0 -0.36513,0.0508 -0.52229,0.15346 -0.15716,0.10266 -0.26776,0.245 -0.33099,0.42756 v -0.51752 h -0.55378 z"
       fill="#000000"
       id="path17"
       style="stroke-width:0.264583" />
    <path
       d="m 70.937068,49.596668 c 0,0.28099 -0.0757,0.50853 -0.22622,0.68368 -0.15055,0.1741 -0.36195,0.26167 -0.63368,0.26167 -0.24209,0 -0.43259,-0.0775 -0.5707,-0.23336 -0.13785,-0.15505 -0.20691,-0.38444 -0.20691,-0.68607 v -1.93489 h -0.56727 v 2.01162 c 0,0.46435 0.10901,0.80857 0.32862,1.03453 0.21854,0.22569 0.50376,0.3384 0.85645,0.3384 0.23786,0 0.44662,-0.046 0.62707,-0.13758 0.18044,-0.0918 0.31511,-0.21855 0.40428,-0.38021 v 0.42174 h 0.55377 v -3.2885 h -0.56726 v 1.90897 z"
       fill="#000000"
       id="path18"
       style="stroke-width:0.264583" />
    <path
       d="m 74.513968,50.895508 c 0.22278,-0.11668 0.39661,-0.27438 0.52229,-0.47281 0.12567,-0.19738 0.1987,-0.42016 0.2196,-0.66675 h -0.5797 c -0.0466,0.27252 -0.15399,0.47254 -0.32173,0.60007 -0.16801,0.12753 -0.37518,0.19183 -0.62125,0.19183 -0.32702,0 -0.58631,-0.10769 -0.77681,-0.32253 -0.1905,-0.21511 -0.28708,-0.51435 -0.28708,-0.8972 0,-0.38259 0.0958,-0.67601 0.28708,-0.89112 0.19129,-0.21511 0.44979,-0.32253 0.77681,-0.32253 0.24183,0 0.44821,0.0659 0.61781,0.19765 0.16959,0.13176 0.27781,0.32993 0.32517,0.59346 h 0.5797 c -0.0217,-0.24686 -0.0947,-0.47017 -0.2196,-0.67019 -0.12568,-0.20003 -0.29951,-0.35772 -0.52229,-0.47281 -0.22278,-0.11483 -0.48075,-0.17251 -0.77417,-0.17251 -0.32703,0 -0.61542,0.0736 -0.86678,0.22013 -0.25029,0.14685 -0.44397,0.35269 -0.57943,0.61595 -0.13573,0.26432 -0.204,0.56436 -0.204,0.90038 0,0.33602 0.0683,0.63606 0.204,0.90038 0.13546,0.26431 0.32834,0.47016 0.57626,0.61939 0.24871,0.14922 0.53631,0.2233 0.86333,0.2233 0.29687,0 0.55722,-0.0582 0.78,-0.17594 z"
       fill="#000000"
       id="path19"
       style="stroke-width:0.264583" />
    <path
       d="m 76.632218,46.908228 h -0.53472 v 0.49848 c 0,0.11933 -0.0233,0.20267 -0.0699,0.24924 -0.0466,0.0468 -0.12964,0.0701 -0.24871,0.0701 h -0.28681 v 0.47943 h 0.57971 v 2.11984 c 0,0.23839 0.068,0.41672 0.20373,0.53605 0.13546,0.11906 0.32517,0.17833 0.56726,0.17833 0.15293,0 0.30586,-0.0233 0.458,-0.0701 v -0.51752 c -0.12304,0.0299 -0.23363,0.045 -0.331,0.045 -0.11456,0 -0.19949,-0.0302 -0.25426,-0.0892 -0.055,-0.0593 -0.0833,-0.15769 -0.0833,-0.29342 v -1.90897 h 0.66861 v -0.51779 h -0.66861 z"
       fill="#000000"
       id="path20"
       style="stroke-width:0.264583" />
    <path
       d="m 77.874708,47.686898 v 2.01137 c 0,0.46434 0.10901,0.80883 0.32782,1.03452 0.21854,0.22595 0.50403,0.33866 0.85645,0.33866 0.23786,0 0.44662,-0.046 0.62706,-0.13758 0.18045,-0.0918 0.31539,-0.21855 0.40429,-0.38021 v 0.42175 h 0.55377 v -3.28851 h -0.567 v 1.90897 c 0,0.28099 -0.0757,0.50853 -0.22622,0.68342 -0.15055,0.17436 -0.36195,0.26194 -0.63368,0.26194 -0.24209,0 -0.43259,-0.0775 -0.5707,-0.23336 -0.13785,-0.15505 -0.20691,-0.38444 -0.20691,-0.68607 v -1.9349 h -0.56726 z"
       fill="#000000"
       id="path21"
       style="stroke-width:0.264583" />
    <path
       d="m 81.989768,49.148988 c 0,-0.29342 0.073,-0.52678 0.21934,-0.69929 0.14658,-0.17251 0.36433,-0.2585 0.65299,-0.2585 h 0.12727 v -0.56859 h -0.15981 c -0.19129,0 -0.36513,0.0508 -0.52229,0.15346 -0.15716,0.10266 -0.26776,0.245 -0.33099,0.42757 v -0.51753 h -0.55377 v 3.28851 h 0.56726 v -1.82642 z"
       fill="#000000"
       id="path22"
       style="stroke-width:0.264583" />
    <path
       d="m 85.970958,50.241188 v -1.65391 c 0,-0.28945 -0.10504,-0.52784 -0.31539,-0.71543 -0.21034,-0.18759 -0.52969,-0.28072 -0.95885,-0.28072 -0.38682,0 -0.71093,0.0974 -0.97472,0.29342 -0.26353,0.19579 -0.40323,0.4617 -0.42069,0.79772 h 0.58632 c 0.0124,-0.19606 0.0963,-0.34529 0.25188,-0.44689 0.15558,-0.1016 0.34105,-0.15345 0.55721,-0.15345 0.22966,0 0.40587,0.045 0.52891,0.1344 0.12303,0.0892 0.18467,0.20823 0.18467,0.35746 0,0.11509 -0.0349,0.19923 -0.10477,0.25267 -0.0699,0.0534 -0.17727,0.095 -0.322,0.12409 l -0.81491,0.15346 c -0.28443,0.0508 -0.51488,0.15663 -0.6911,0.31591 -0.17621,0.16008 -0.26458,0.38444 -0.26458,0.67363 0,0.28919 0.10742,0.54108 0.322,0.71517 0.21458,0.17436 0.48895,0.26194 0.82497,0.26194 0.26352,0 0.48233,-0.046 0.65617,-0.13758 0.17383,-0.0918 0.31009,-0.19685 0.40745,-0.31592 0.0299,0.13997 0.0958,0.2458 0.19791,0.31592 0.1024,0.0699 0.22701,0.10504 0.37598,0.10504 0.14896,0 0.28283,-0.0259 0.40163,-0.0767 v -0.47281 c -0.0548,0.0175 -0.1188,0.0259 -0.19129,0.0259 -0.15716,0 -0.23522,-0.0918 -0.23522,-0.27438 z m -0.56066,-0.43445 c 0,0.22596 -0.0899,0.41011 -0.2704,0.55193 -0.18045,0.14261 -0.40402,0.21431 -0.67178,0.21431 -0.20373,0 -0.36777,-0.0426 -0.4908,-0.1278 -0.12303,-0.0849 -0.18468,-0.20822 -0.18468,-0.36988 0,-0.14923 0.0466,-0.26591 0.14076,-0.35111 0.0931,-0.0849 0.23945,-0.14657 0.43974,-0.18494 l 0.53472,-0.10266 c 0.27623,-0.0508 0.44424,-0.10821 0.50324,-0.17251 v 0.54266 z"
       fill="#000000"
       id="path23"
       style="stroke-width:0.264583" />
    <path
       d="m 90.404578,50.502858 v 0.47255 h 0.55377 v -4.50136 h -0.56065 v 1.67296 c -0.10636,-0.17409 -0.26008,-0.31088 -0.46143,-0.40851 -0.20214,-0.0974 -0.40429,-0.14658 -0.60802,-0.14658 -0.31855,0 -0.59531,0.0725 -0.83158,0.21669 -0.23548,0.145 -0.41672,0.34925 -0.54134,0.61278 -0.12568,0.26405 -0.18812,0.56594 -0.18812,0.90699 0,0.34078 0.0651,0.64267 0.19474,0.90699 0.12964,0.26405 0.31009,0.46911 0.54133,0.61595 0.23125,0.14658 0.4998,0.22013 0.80592,0.22013 0.2212,0 0.43075,-0.0492 0.63051,-0.14684 0.19949,-0.0976 0.35427,-0.23839 0.46487,-0.42095 z m -1.78647,-0.27754 c -0.18044,-0.21511 -0.27119,-0.51435 -0.27119,-0.89694 0,-0.38285 0.0915,-0.67627 0.27357,-0.89138 0.1831,-0.21484 0.43763,-0.32253 0.76439,-0.32253 0.19949,0 0.37914,0.0492 0.53816,0.14684 0.15954,0.0974 0.28363,0.23839 0.37253,0.42096 0.0889,0.18335 0.13388,0.39846 0.13388,0.64505 0,0.37439 -0.0966,0.67204 -0.29025,0.89112 -0.19288,0.21934 -0.44503,0.32861 -0.75512,0.32861 -0.33099,0 -0.58711,-0.10768 -0.76755,-0.32253 z"
       fill="#000000"
       id="path24"
       style="stroke-width:0.264583" />
    <path
       d="m 94.755648,49.193968 v -0.0191 c 0,-0.31512 -0.0667,-0.59187 -0.20055,-0.83026 -0.13388,-0.23839 -0.32253,-0.4236 -0.56727,-0.55616 -0.24447,-0.13176 -0.52308,-0.19737 -0.8374,-0.19737 -0.31433,0 -0.59214,0.0725 -0.83424,0.21669 -0.24182,0.14499 -0.43074,0.3466 -0.567,0.60669 -0.13573,0.26009 -0.20373,0.56039 -0.20373,0.90038 0,0.34025 0.068,0.66198 0.20373,0.9263 0.13547,0.26406 0.32835,0.46832 0.57626,0.61251 0.24871,0.14526 0.54055,0.21696 0.87578,0.21696 0.39079,0 0.7186,-0.0968 0.98372,-0.29025 0.26537,-0.19341 0.43682,-0.4609 0.51329,-0.80115 h -0.58632 c -0.064,0.19605 -0.17224,0.34342 -0.32517,0.44344 -0.1532,0.10027 -0.34608,0.15028 -0.5797,0.15028 -0.31036,0 -0.56145,-0.0942 -0.75512,-0.28443 -0.19394,-0.18917 -0.30031,-0.44582 -0.322,-0.76941 h 2.599 c 0.0167,-0.12753 0.0259,-0.23601 0.0259,-0.32596 z m -2.62466,-0.14658 c 0.0339,-0.30189 0.14128,-0.53869 0.32173,-0.70855 0.18045,-0.17013 0.41487,-0.25506 0.70353,-0.25506 0.28866,0 0.53657,0.0873 0.71702,0.26167 0.18044,0.1741 0.27675,0.40852 0.29025,0.70273 h -2.03253 z"
       fill="#000000"
       id="path25"
       style="stroke-width:0.264583" />
    <path
       d="m 97.103568,50.886238 c 0.26114,0.1233 0.56382,0.18521 0.90805,0.18521 0.29686,0 0.56567,-0.0569 0.80592,-0.16933 0.23944,-0.11245 0.42915,-0.27014 0.56726,-0.47255 0.13785,-0.20267 0.20691,-0.43365 0.20691,-0.69294 0,-0.34502 -0.0873,-0.62018 -0.26115,-0.82682 -0.17383,-0.20664 -0.4482,-0.35005 -0.82153,-0.43101 l -0.78343,-0.17251 c -0.24209,-0.0508 -0.41831,-0.13017 -0.5289,-0.23601 -0.1106,-0.10662 -0.16563,-0.25744 -0.16563,-0.45349 0,-0.22172 0.0775,-0.39582 0.23283,-0.52335 0.15478,-0.12753 0.38338,-0.19182 0.68448,-0.19182 0.3011,0 0.5297,0.0759 0.71041,0.22675 0.18044,0.15081 0.28522,0.37756 0.31511,0.68024 h 0.61119 c -0.0217,-0.45111 -0.17806,-0.80195 -0.47149,-1.05383 -0.29289,-0.25083 -0.68791,-0.37677 -1.18506,-0.37677 -0.30189,0 -0.56727,0.055 -0.79587,0.16589 -0.22966,0.11086 -0.40587,0.26273 -0.5289,0.45694 -0.1233,0.19341 -0.18468,0.4101 -0.18468,0.64849 0,0.31089 0.0857,0.56595 0.2577,0.76624 0.17225,0.20002 0.42598,0.33655 0.76094,0.40825 l 0.83424,0.18521 c 0.25849,0.055 0.44238,0.14261 0.55139,0.26167 0.10821,0.11933 0.16219,0.28099 0.16219,0.48524 0,0.2466 -0.0881,0.44107 -0.26459,0.58103 -0.17621,0.14076 -0.41063,0.21088 -0.70352,0.21088 -0.331,0 -0.6022,-0.0892 -0.81254,-0.26856 -0.21034,-0.17833 -0.31776,-0.41672 -0.32173,-0.71517 h -0.60563 c 0,0.30269 0.0725,0.5678 0.21643,0.79534 0.14472,0.22754 0.3466,0.40349 0.6088,0.52679 z"
       fill="#000000"
       id="path26"
       style="stroke-width:0.264583" />
    <path
       d="m 102.48598,47.789298 c -0.24474,-0.1315 -0.52334,-0.19738 -0.83767,-0.19738 -0.31432,0 -0.59213,0.0725 -0.83396,0.21669 -0.2421,0.145 -0.43101,0.34687 -0.56727,0.60696 -0.13547,0.26008 -0.20373,0.56012 -0.20373,0.90011 0,0.34025 0.0683,0.66199 0.20373,0.9263 0.13547,0.26406 0.32755,0.46832 0.57626,0.61251 0.24871,0.14526 0.54055,0.21696 0.87577,0.21696 0.39079,0 0.71861,-0.0968 0.98399,-0.29024 0.26511,-0.19342 0.43656,-0.46091 0.51303,-0.80116 h -0.58632 c -0.064,0.19605 -0.17224,0.34343 -0.32517,0.4437 -0.15293,0.10002 -0.34608,0.15002 -0.57971,0.15002 -0.31009,0 -0.56144,-0.0942 -0.75512,-0.28443 -0.19288,-0.18917 -0.3003,-0.44582 -0.32173,-0.7694 h 2.59874 c 0.0167,-0.12753 0.0259,-0.23575 0.0259,-0.32597 v -0.0191 c 0,-0.31512 -0.0667,-0.59187 -0.20056,-0.83026 -0.13388,-0.23839 -0.32252,-0.4236 -0.56726,-0.55616 z m -1.85711,1.25809 c 0.0341,-0.30189 0.14129,-0.53869 0.32174,-0.70855 0.18044,-0.17013 0.41513,-0.25506 0.70352,-0.25506 0.28866,0 0.53658,0.0873 0.71702,0.26167 0.18045,0.1741 0.27702,0.40852 0.29025,0.70273 h -2.03173 z"
       fill="#000000"
       id="path27"
       style="stroke-width:0.264583" />
    <path
       d="m 103.82742,47.686898 v 3.28851 h 0.567 v -1.82642 c 0,-0.29342 0.0733,-0.52678 0.21961,-0.69929 0.14631,-0.17251 0.36433,-0.2585 0.65299,-0.2585 h 0.127 v -0.56859 h -0.15954 c -0.1913,0 -0.36513,0.0508 -0.52229,0.15346 -0.15716,0.10266 -0.26776,0.245 -0.331,0.42756 v -0.51752 h -0.55377 z"
       fill="#000000"
       id="path28"
       style="stroke-width:0.264583" />
    <path
       d="m 107.4583,49.385788 -0.3511,0.91943 -0.35666,-0.91943 -0.64955,-1.69889 h -0.63712 l 1.3507,3.28851 h 0.5797 l 1.35705,-3.28851 h -0.63685 z"
       fill="#000000"
       id="path29"
       style="stroke-width:0.264583" />
    <path
       d="m 109.73874,47.686898 h -0.567 v 3.28851 h 0.567 z"
       fill="#000000"
       id="path30"
       style="stroke-width:0.264583" />
    <path
       d="m 109.45855,46.441508 c -0.10636,0 -0.19791,0.0376 -0.27358,0.11166 -0.0757,0.0741 -0.11483,0.16668 -0.11483,0.27754 0,0.11086 0.0373,0.20347 0.11139,0.27755 0.0741,0.0743 0.16642,0.11192 0.27702,0.11192 0.11059,0 0.20293,-0.0384 0.27702,-0.1151 0.0738,-0.0767 0.11139,-0.16854 0.11139,-0.27437 0,-0.10583 -0.0376,-0.20346 -0.11139,-0.27754 -0.0741,-0.0741 -0.16643,-0.11166 -0.27702,-0.11166 z"
       fill="#000000"
       id="path31"
       style="stroke-width:0.264583" />
    <path
       d="m 111.96812,48.115258 c 0.2421,0 0.44821,0.0659 0.61807,0.19765 0.1696,0.13176 0.27781,0.3302 0.32517,0.59346 h 0.5797 c -0.0217,-0.24659 -0.095,-0.47017 -0.2196,-0.67019 -0.12568,-0.20003 -0.29951,-0.35745 -0.52229,-0.47255 -0.22304,-0.11509 -0.48075,-0.17251 -0.77443,-0.17251 -0.32676,0 -0.61622,0.0733 -0.86651,0.21987 -0.2503,0.14685 -0.44398,0.3527 -0.57971,0.61622 -0.13546,0.26405 -0.20373,0.56435 -0.20373,0.90011 0,0.33602 0.0683,0.63606 0.20373,0.90038 0.13573,0.26432 0.32782,0.47016 0.57653,0.61939 0.24844,0.14922 0.53631,0.22357 0.86307,0.22357 0.29686,0 0.55721,-0.0585 0.78026,-0.17595 0.22278,-0.11668 0.39661,-0.27437 0.52229,-0.47281 0.12541,-0.19738 0.1987,-0.42015 0.21933,-0.66675 h -0.57943 c -0.0466,0.27252 -0.15399,0.47255 -0.322,0.60008 -0.16801,0.12753 -0.37492,0.19182 -0.62124,0.19182 -0.32676,0 -0.58632,-0.10768 -0.77682,-0.32253 -0.19023,-0.2151 -0.28681,-0.51435 -0.28681,-0.8972 0,-0.38258 0.0955,-0.67601 0.28681,-0.89111 0.19129,-0.21511 0.45006,-0.32253 0.77682,-0.32253 z"
       fill="#000000"
       id="path32"
       style="stroke-width:0.264583" />
    <path
       d="m 114.36922,46.441508 c -0.10637,0 -0.19791,0.0376 -0.27358,0.11166 -0.0757,0.0741 -0.11457,0.16668 -0.11457,0.27754 0,0.11086 0.0373,0.20347 0.11139,0.27755 0.0741,0.0743 0.16616,0.11192 0.27676,0.11192 0.11086,0 0.20293,-0.0384 0.27701,-0.1151 0.0741,-0.0767 0.11139,-0.16854 0.11139,-0.27437 0,-0.10583 -0.0373,-0.20346 -0.11139,-0.27754 -0.0741,-0.0741 -0.16615,-0.11166 -0.27701,-0.11166 z"
       fill="#000000"
       id="path33"
       style="stroke-width:0.264583" />
    <path
       d="m 114.65047,47.686898 h -0.56727 v 3.28851 h 0.56727 z"
       fill="#000000"
       id="path34"
       style="stroke-width:0.264583" />
    <path
       d="m 117.78075,47.811788 c -0.25267,-0.14658 -0.54477,-0.21987 -0.87577,-0.21987 -0.33099,0 -0.62283,0.0725 -0.87577,0.21669 -0.25268,0.14499 -0.4482,0.34925 -0.58632,0.61278 -0.13784,0.26405 -0.2069,0.56594 -0.2069,0.90699 0,0.34078 0.0691,0.64267 0.2069,0.90673 0.13812,0.26431 0.33364,0.46937 0.58632,0.61621 0.25294,0.14658 0.54478,0.22013 0.87577,0.22013 0.331,0 0.62892,-0.0725 0.87921,-0.21696 0.2503,-0.14499 0.44477,-0.34925 0.58288,-0.61251 0.13811,-0.26352 0.20717,-0.56859 0.20717,-0.91281 0,-0.34449 -0.0691,-0.64188 -0.20717,-0.90381 -0.13811,-0.26167 -0.33338,-0.46594 -0.58632,-0.61252 z m -0.0765,2.41009 c -0.19712,0.21669 -0.46408,0.32596 -0.79931,0.32596 -0.33523,0 -0.60113,-0.10848 -0.79586,-0.32596 -0.19553,-0.2167 -0.29263,-0.51515 -0.29263,-0.8935 0,-0.37862 0.0971,-0.67046 0.29263,-0.88794 0.19552,-0.2167 0.46063,-0.32597 0.79586,-0.32597 0.33523,0 0.60219,0.10848 0.79931,0.32597 0.19791,0.21669 0.29607,0.51276 0.29607,0.88794 0,0.37491 -0.099,0.6768 -0.29607,0.8935 z"
       fill="#000000"
       id="path35"
       style="stroke-width:0.264583" />
    <path
       d="m 120.93088,49.110628 -0.75829,-0.12753 c -0.17384,-0.0299 -0.29766,-0.0767 -0.36936,-0.13997 -0.0722,-0.0643 -0.10795,-0.15504 -0.10795,-0.27437 0,-0.14923 0.064,-0.26829 0.19129,-0.35745 0.127,-0.0894 0.29501,-0.13441 0.50297,-0.13441 0.22543,0 0.40746,0.0534 0.54822,0.16007 0.14049,0.10689 0.21855,0.25348 0.23522,0.44106 h 0.57308 c -0.008,-0.33179 -0.13308,-0.5961 -0.37253,-0.7919 -0.24051,-0.19605 -0.55986,-0.29342 -0.95912,-0.29342 -0.25426,0 -0.48048,0.0415 -0.67839,0.12409 -0.19711,0.0833 -0.35031,0.20108 -0.45826,0.35428 -0.10821,0.15346 -0.16218,0.32782 -0.16218,0.52361 0,0.49768 0.28442,0.79454 0.85328,0.88768 l 0.76411,0.12753 c 0.16563,0.0302 0.28443,0.0794 0.35693,0.14684 0.0722,0.0683 0.10795,0.16828 0.10795,0.30004 0,0.15769 -0.0664,0.28443 -0.20029,0.3802 -0.13388,0.0958 -0.31115,0.14341 -0.53235,0.14341 -0.24606,0 -0.44979,-0.0609 -0.61118,-0.18177 -0.1614,-0.12171 -0.2503,-0.28178 -0.26776,-0.48181 h -0.57309 c 0.004,0.22596 0.0667,0.42677 0.18786,0.60352 0.12144,0.17674 0.28866,0.31247 0.50323,0.40851 0.21458,0.0958 0.45747,0.14341 0.72946,0.14341 0.40322,0 0.72681,-0.096 0.97128,-0.28761 0.24448,-0.19182 0.36592,-0.44264 0.36592,-0.75353 0,-0.25532 -0.0714,-0.46196 -0.21378,-0.61939 -0.14208,-0.15769 -0.35163,-0.2577 -0.62706,-0.3003 z"
       fill="#000000"
       id="path36"
       style="stroke-width:0.264583" />
    <path
       d="m 47.997688,56.303058 c 0.1995,-0.0807 0.35349,-0.2032 0.4617,-0.36671 0.10795,-0.16352 0.16193,-0.35428 0.16193,-0.57177 0,-0.23442 -0.054,-0.44106 -0.16193,-0.61939 -0.10821,-0.17938 -0.2622,-0.31856 -0.4617,-0.41857 -0.19949,-0.10001 -0.42915,-0.15002 -0.68765,-0.15002 h -1.75816 v 4.50162 h 1.86611 c 0.40349,0 0.72443,-0.11509 0.96229,-0.34528 0.23786,-0.22992 0.35666,-0.53604 0.35666,-0.91942 0,-0.28523 -0.064,-0.52441 -0.19129,-0.71861 -0.12727,-0.19341 -0.3101,-0.32438 -0.54796,-0.39264 z m -1.85949,-1.61555 h 1.10173 c 0.24209,0 0.43259,0.0617 0.5707,0.18521 0.13812,0.1233 0.20691,0.29581 0.20691,0.51753 0,0.22172 -0.0699,0.38444 -0.21035,0.51435 -0.14049,0.13017 -0.3294,0.19526 -0.56726,0.19526 h -1.10173 v -1.41155 z m 1.78038,3.26946 c -0.14208,0.14102 -0.33681,0.21087 -0.58287,0.21087 h -1.19751 v -1.57718 h 1.19751 c 0.25029,0 0.44582,0.0701 0.58631,0.21087 0.1405,0.14103 0.21035,0.33444 0.21035,0.58103 0,0.24686 -0.0714,0.43445 -0.21379,0.57441 z"
       fill="#000000"
       id="path37"
       style="stroke-width:0.264583" />
    <path
       d="m 49.960368,54.176608 h -0.56726 v 4.50162 h 0.56726 z"
       fill="#000000"
       id="path38"
       style="stroke-width:0.264583" />
    <path
       d="m 53.090658,55.514598 c -0.25294,-0.14684 -0.54478,-0.22013 -0.87577,-0.22013 -0.331,0 -0.62363,0.0725 -0.87577,0.21669 -0.25268,0.14499 -0.44821,0.34925 -0.58632,0.61278 -0.13785,0.26432 -0.20691,0.56594 -0.20691,0.90699 0,0.34078 0.0691,0.64267 0.20691,0.90699 0.13811,0.26405 0.33364,0.46937 0.58632,0.61595 0.25294,0.14684 0.54477,0.22013 0.87577,0.22013 0.33099,0 0.62891,-0.0725 0.87921,-0.21669 0.25029,-0.14526 0.44476,-0.34925 0.58287,-0.61278 0.13812,-0.26431 0.20717,-0.56859 0.20717,-0.91281 0,-0.34422 -0.0691,-0.64188 -0.20717,-0.90355 -0.13811,-0.26194 -0.33337,-0.4662 -0.58631,-0.61278 z m -0.0757,2.40983 c -0.19791,0.21669 -0.46408,0.32596 -0.79931,0.32596 -0.33496,0 -0.60113,-0.10821 -0.79666,-0.32596 -0.19553,-0.2167 -0.29263,-0.51515 -0.29263,-0.8935 0,-0.37862 0.0971,-0.67019 0.29263,-0.88794 0.19553,-0.21749 0.46064,-0.32597 0.79666,-0.32597 0.33602,0 0.60219,0.10848 0.79931,0.32597 0.19711,0.21669 0.29607,0.51276 0.29607,0.88794 0,0.37518 -0.099,0.6768 -0.29607,0.8935 z"
       fill="#000000"
       id="path39"
       style="stroke-width:0.264583" />
    <path
       d="m 55.929108,55.817018 c 0.24183,0 0.4482,0.0659 0.6178,0.19765 0.1696,0.13176 0.27781,0.33019 0.32517,0.59345 h 0.5797 c -0.0217,-0.24659 -0.095,-0.47016 -0.2196,-0.67019 -0.12568,-0.20002 -0.29951,-0.35745 -0.52229,-0.47254 -0.22278,-0.1151 -0.48075,-0.17251 -0.77417,-0.17251 -0.32702,0 -0.61621,0.0733 -0.86677,0.21987 -0.2503,0.14685 -0.44397,0.35269 -0.57944,0.61622 -0.13573,0.26431 -0.20399,0.56435 -0.20399,0.90037 0,0.33576 0.0683,0.6358 0.20399,0.90012 0.13547,0.26431 0.32755,0.47016 0.57626,0.61939 0.24871,0.14922 0.53631,0.22357 0.86334,0.22357 0.29686,0 0.55721,-0.0585 0.77999,-0.17595 0.22278,-0.11747 0.39661,-0.27437 0.52229,-0.47281 0.12567,-0.19738 0.1987,-0.42016 0.2196,-0.66675 h -0.5797 c -0.0466,0.27252 -0.15399,0.47255 -0.322,0.60007 -0.16801,0.12753 -0.37491,0.19183 -0.62124,0.19183 -0.32676,0 -0.58632,-0.10742 -0.77655,-0.32253 -0.1913,-0.21511 -0.28708,-0.51435 -0.28708,-0.89694 0,-0.38285 0.0958,-0.67627 0.28708,-0.89138 0.19129,-0.21484 0.44979,-0.32253 0.77655,-0.32253 z"
       fill="#000000"
       id="path40"
       style="stroke-width:0.264583" />
    <path
       d="m 60.872318,55.389448 h -0.73263 l -1.52877,1.51977 v -2.73262 h -0.567 v 4.50162 h 0.567 v -1.07288 l 0.54743,-0.52361 1.12183,1.59649 h 0.66199 l -1.4015,-1.98569 z"
       fill="#000000"
       id="path41"
       style="stroke-width:0.264583" />
    <path
       d="m 62.706938,55.817018 c 0.24183,0 0.4482,0.0659 0.6178,0.19765 0.1696,0.13176 0.27781,0.33019 0.32517,0.59345 h 0.57971 c -0.0217,-0.24659 -0.0947,-0.47016 -0.21961,-0.67019 -0.12541,-0.20002 -0.29924,-0.35745 -0.52229,-0.47254 -0.22278,-0.1151 -0.48074,-0.17251 -0.77417,-0.17251 -0.32676,0 -0.61542,0.0733 -0.86651,0.21987 -0.25056,0.14685 -0.44423,0.35269 -0.5797,0.61622 -0.13573,0.26431 -0.20373,0.56435 -0.20373,0.90037 0,0.33576 0.068,0.6358 0.20373,0.90012 0.13547,0.26431 0.32835,0.47016 0.57626,0.61939 0.24871,0.14922 0.53631,0.22357 0.86334,0.22357 0.29686,0 0.55721,-0.0585 0.77999,-0.17595 0.22278,-0.11668 0.39661,-0.27437 0.52229,-0.47281 0.12567,-0.19738 0.1987,-0.42016 0.2196,-0.66675 h -0.5797 c -0.0466,0.27252 -0.15372,0.47255 -0.32173,0.60007 -0.16801,0.12753 -0.37518,0.19183 -0.62125,0.19183 -0.32702,0 -0.58631,-0.10742 -0.77681,-0.32253 -0.1913,-0.21511 -0.28707,-0.51435 -0.28707,-0.89694 0,-0.38285 0.0958,-0.67627 0.28707,-0.89138 0.19129,-0.21484 0.44979,-0.32253 0.77681,-0.32253 z"
       fill="#000000"
       id="path42"
       style="stroke-width:0.264583" />
    <path
       d="m 66.388878,55.293668 c -0.21643,0 -0.41513,0.045 -0.59558,0.13415 -0.18044,0.0892 -0.31512,0.21272 -0.40428,0.37015 v -1.62216 h -0.567 v 4.50136 h 0.567 v -1.90897 c 0,-0.28072 0.0775,-0.50853 0.2331,-0.68342 0.15451,-0.17436 0.36989,-0.26167 0.64611,-0.26167 0.2503,0 0.44662,0.0775 0.5887,0.23257 0.14234,0.15584 0.21378,0.38417 0.21378,0.68606 v 1.93463 h 0.56065 v -2.01136 c 0,-0.46858 -0.11165,-0.81465 -0.33443,-1.03796 -0.22278,-0.22331 -0.52546,-0.33496 -0.90805,-0.33496 z"
       fill="#000000"
       id="path43"
       style="stroke-width:0.264583" />
    <path
       d="m 70.956118,57.943738 v -1.65391 c 0,-0.28919 -0.10478,-0.52784 -0.31512,-0.71517 -0.21034,-0.18759 -0.5297,-0.28098 -0.95885,-0.28098 -0.38682,0 -0.71094,0.0974 -0.97473,0.29342 -0.26352,0.19579 -0.40322,0.4617 -0.42068,0.79772 h 0.58631 c 0.0124,-0.1958 0.0963,-0.34502 0.25189,-0.44689 0.15478,-0.10239 0.34104,-0.15319 0.55721,-0.15319 0.22966,0 0.40587,0.045 0.5289,0.13414 0.12303,0.0892 0.18468,0.20823 0.18468,0.35746 0,0.11509 -0.0349,0.19923 -0.10477,0.25267 -0.0699,0.0534 -0.17728,0.095 -0.322,0.12436 l -0.81492,0.15319 c -0.28443,0.0508 -0.51488,0.1569 -0.69109,0.31592 -0.17621,0.15927 -0.26458,0.38443 -0.26458,0.67363 0,0.28919 0.10742,0.54107 0.32199,0.71516 0.21458,0.17436 0.48895,0.26194 0.82497,0.26194 0.26353,0 0.48234,-0.046 0.65617,-0.13758 0.17383,-0.0918 0.31009,-0.19685 0.40746,-0.31592 0.0299,0.13997 0.0958,0.2458 0.19791,0.31592 0.10239,0.0699 0.22701,0.10504 0.37597,0.10504 0.14896,0 0.28284,-0.0259 0.40164,-0.0767 v -0.47255 c -0.0548,0.0175 -0.1188,0.0257 -0.1913,0.0257 -0.15716,0 -0.23521,-0.0915 -0.23521,-0.27411 z m -0.56039,-0.43444 c 0,0.22595 -0.09,0.4101 -0.2704,0.55192 -0.18045,0.14261 -0.40402,0.21431 -0.67178,0.21431 -0.20399,0 -0.36777,-0.0426 -0.4908,-0.12753 -0.12303,-0.0852 -0.18468,-0.20849 -0.18468,-0.37015 0,-0.14923 0.0466,-0.26591 0.14049,-0.35111 0.0934,-0.0849 0.23971,-0.14657 0.44,-0.18494 l 0.53473,-0.10265 c 0.27622,-0.0508 0.44423,-0.10822 0.50323,-0.17251 v 0.54266 z"
       fill="#000000"
       id="path44"
       style="stroke-width:0.264583" />
    <path
       d="m 72.096468,54.144848 c -0.10636,0 -0.19791,0.0376 -0.27358,0.11166 -0.0757,0.0743 -0.11483,0.16669 -0.11483,0.27781 0,0.11086 0.0376,0.2032 0.11139,0.27755 0.0741,0.0741 0.16643,0.11165 0.27702,0.11165 0.1106,0 0.20294,-0.0384 0.27702,-0.11509 0.0738,-0.0767 0.11139,-0.16827 0.11139,-0.27411 0,-0.1061 -0.0376,-0.20346 -0.11139,-0.27781 -0.0741,-0.0741 -0.16642,-0.11166 -0.27702,-0.11166 z"
       fill="#000000"
       id="path45"
       style="stroke-width:0.264583" />
    <path
       d="m 72.377458,55.389448 h -0.56727 v 3.28877 h 0.56727 z"
       fill="#000000"
       id="path46"
       style="stroke-width:0.264583" />
    <path
       d="m 74.721138,55.293668 c -0.22119,0 -0.42254,0.0466 -0.60537,0.14076 -0.18309,0.0934 -0.31856,0.22172 -0.40772,0.38365 v -0.42783 h -0.55377 v 3.28877 h 0.56726 v -1.90897 c 0,-0.28099 0.0773,-0.50853 0.23284,-0.68368 0.15451,-0.1741 0.36988,-0.26168 0.64611,-0.26168 0.25029,0 0.44662,0.0791 0.5887,0.23575 0.14234,0.15769 0.21378,0.38761 0.21378,0.6895 v 1.92829 h 0.56065 v -2.01163 c 0,-0.46858 -0.11139,-0.81439 -0.33443,-1.03796 -0.22278,-0.22331 -0.52546,-0.33497 -0.90805,-0.33497 z"
       fill="#000000"
       id="path47"
       style="stroke-width:0.264583" />
    <path
       d="m 80.294588,55.849558 c -0.10637,-0.17409 -0.26035,-0.31088 -0.46144,-0.40851 -0.20214,-0.0974 -0.40428,-0.14658 -0.6088,-0.14658 -0.31856,0 -0.59558,0.0725 -0.83159,0.21669 -0.23548,0.145 -0.41592,0.34925 -0.5416,0.61278 -0.12541,0.26432 -0.18785,0.56594 -0.18785,0.90699 0,0.34078 0.0648,0.64267 0.19446,0.90699 0.12991,0.26432 0.31036,0.46937 0.54161,0.61595 0.23098,0.14684 0.49979,0.22013 0.80565,0.22013 0.2204,0 0.43101,-0.0492 0.6305,-0.14684 0.1995,-0.0974 0.35428,-0.23839 0.46488,-0.42175 v 0.47281 h 0.55403 v -4.50162 h -0.56065 v 1.67296 z m -0.25771,2.07169 c -0.19288,0.21908 -0.44503,0.32914 -0.75512,0.32914 -0.33099,0 -0.58711,-0.10742 -0.76782,-0.32252 -0.18045,-0.21511 -0.27093,-0.51435 -0.27093,-0.89694 0,-0.38259 0.0915,-0.67601 0.27358,-0.89112 0.18203,-0.2151 0.43735,-0.32279 0.76438,-0.32279 0.19949,0 0.37915,0.0492 0.5379,0.14684 0.1598,0.0976 0.28363,0.2384 0.37253,0.42175 0.0892,0.18336 0.13388,0.39846 0.13388,0.64532 0,0.37412 -0.0963,0.67178 -0.29025,0.89112 z"
       fill="#000000"
       id="path48"
       style="stroke-width:0.264583" />
    <path
       d="m 83.885248,55.492108 c -0.24448,-0.13176 -0.52308,-0.19764 -0.83741,-0.19764 -0.31459,0 -0.59214,0.0725 -0.83423,0.21669 -0.24209,0.14499 -0.43074,0.34687 -0.56727,0.60696 -0.13546,0.26008 -0.20373,0.55932 -0.20373,0.90037 0,0.34079 0.0683,0.66173 0.20373,0.92604 0.13573,0.26433 0.32782,0.46858 0.57627,0.61278 0.2487,0.1442 0.5408,0.21669 0.87577,0.21669 0.39105,0 0.7186,-0.0968 0.98398,-0.29104 0.26511,-0.19341 0.43656,-0.4609 0.51303,-0.80116 h -0.58632 c -0.064,0.19606 -0.17224,0.3437 -0.32517,0.44371 -0.15293,0.10001 -0.34581,0.15002 -0.5797,0.15002 -0.31009,0 -0.56118,-0.095 -0.75512,-0.28443 -0.19289,-0.18918 -0.30031,-0.44582 -0.32174,-0.76941 h 2.59874 c 0.0167,-0.12753 0.0259,-0.23574 0.0259,-0.32596 v -0.019 c 0,-0.31512 -0.0667,-0.59188 -0.20056,-0.83027 -0.13387,-0.23839 -0.32252,-0.42359 -0.567,-0.55615 z m -1.85711,1.25783 c 0.0341,-0.30189 0.14128,-0.53843 0.32173,-0.70855 0.18045,-0.17013 0.41513,-0.25506 0.70379,-0.25506 0.2884,0 0.53631,0.0876 0.71676,0.26167 0.18044,0.17436 0.27702,0.40852 0.29025,0.70273 h -2.03174 z"
       fill="#000000"
       id="path49"
       style="stroke-width:0.264583" />
    <path
       d="m 86.454878,58.678218 h 2.73288 v -0.53604 h -2.14656 v -1.52638 h 2.00025 v -0.53605 h -2.00025 v -1.3671 h 2.14656 v -0.53605 h -2.73288 z"
       fill="#000000"
       id="path50"
       style="stroke-width:0.264583" />
    <path
       d="m 91.583828,56.813178 -0.75856,-0.12753 c -0.17383,-0.0299 -0.29766,-0.0765 -0.36936,-0.13997 -0.0722,-0.0643 -0.10795,-0.15504 -0.10795,-0.27437 0,-0.14896 0.064,-0.26829 0.19129,-0.35745 0.127,-0.0892 0.29501,-0.13415 0.50298,-0.13415 0.22542,0 0.40745,0.0532 0.54821,0.16008 0.1405,0.10663 0.21855,0.2532 0.23522,0.44079 h 0.57308 c -0.008,-0.33179 -0.13308,-0.59584 -0.37253,-0.7919 -0.24051,-0.19579 -0.55986,-0.29342 -0.95885,-0.29342 -0.25453,0 -0.48075,0.0418 -0.67866,0.12436 -0.19711,0.0833 -0.3503,0.20082 -0.45825,0.35428 -0.10822,0.15319 -0.16219,0.32755 -0.16219,0.52334 0,0.49768 0.28442,0.79454 0.85328,0.88794 l 0.76411,0.12753 c 0.16563,0.0299 0.28443,0.0791 0.35693,0.14658 0.0722,0.0685 0.10795,0.16854 0.10795,0.30004 0,0.15769 -0.0664,0.28443 -0.20029,0.3802 -0.13388,0.0958 -0.31115,0.14341 -0.53234,0.14341 -0.24607,0 -0.4498,-0.0609 -0.61119,-0.18177 -0.1614,-0.12171 -0.2503,-0.28178 -0.26776,-0.48181 h -0.57309 c 0.004,0.22596 0.0667,0.42678 0.18812,0.60352 0.12118,0.17674 0.2884,0.31274 0.50297,0.40851 0.21458,0.0958 0.45747,0.14341 0.72946,0.14341 0.40323,0 0.72681,-0.0958 0.97129,-0.28761 0.24447,-0.19182 0.36592,-0.44264 0.36592,-0.75353 0,-0.25506 -0.0714,-0.46196 -0.21379,-0.61939 -0.14208,-0.15769 -0.35163,-0.2577 -0.62706,-0.30004 z"
       fill="#000000"
       id="path51"
       style="stroke-width:0.264583" />
    <path
       d="m 95.542258,55.514598 c -0.23548,-0.14684 -0.51329,-0.22013 -0.83185,-0.22013 -0.2077,0 -0.41407,0.05 -0.6178,0.15002 -0.20373,0.10001 -0.35666,0.23918 -0.45906,0.41857 v -0.47281 h -0.55403 v 4.34234 h 0.56726 v -1.51289 c 0.1106,0.17833 0.26459,0.31591 0.4617,0.41169 0.19712,0.0958 0.40667,0.14341 0.62706,0.14341 0.3011,0 0.56886,-0.0733 0.80249,-0.22014 0.23362,-0.14658 0.41407,-0.35163 0.54133,-0.61595 0.12727,-0.26432 0.1913,-0.56594 0.1913,-0.90699 0,-0.34105 -0.0624,-0.64188 -0.18786,-0.90355 -0.12567,-0.26194 -0.30612,-0.4662 -0.54133,-0.61278 z m -0.11827,2.41327 c -0.18283,0.2151 -0.43974,0.32252 -0.77073,0.32252 -0.31036,0 -0.56145,-0.10901 -0.75539,-0.32914 -0.19367,-0.21934 -0.29024,-0.5162 -0.29024,-0.89112 0,-0.37517 0.0974,-0.66542 0.29289,-0.8845 0.19553,-0.21934 0.44582,-0.32861 0.75168,-0.32861 0.33099,0 0.58817,0.10769 0.771,0.32279 0.18309,0.21511 0.27358,0.51171 0.27358,0.89112 0,0.37915 -0.0913,0.68183 -0.27358,0.89694 z"
       fill="#000000"
       id="path52"
       style="stroke-width:0.264583" />
    <path
       d="m 99.437718,57.943738 v -1.65391 c 0,-0.28919 -0.10478,-0.52784 -0.31512,-0.71517 -0.21061,-0.18759 -0.52996,-0.28098 -0.95911,-0.28098 -0.38656,0 -0.71094,0.0974 -0.97446,0.29342 -0.26379,0.19579 -0.40349,0.4617 -0.42096,0.79772 h 0.58632 c 0.0124,-0.1958 0.0966,-0.34502 0.25188,-0.44689 0.15478,-0.10239 0.34105,-0.15319 0.55722,-0.15319 0.22965,0 0.40587,0.045 0.52916,0.13414 0.12303,0.0892 0.18442,0.20823 0.18442,0.35746 0,0.11509 -0.0349,0.19923 -0.10478,0.25267 -0.0699,0.0534 -0.177,0.095 -0.32173,0.12436 l -0.81492,0.15319 c -0.28442,0.0508 -0.51488,0.1569 -0.69135,0.31592 -0.17622,0.15927 -0.26432,0.38443 -0.26432,0.67363 0,0.28919 0.10715,0.54107 0.32173,0.71516 0.21458,0.17436 0.48922,0.26194 0.82497,0.26194 0.26379,0 0.4826,-0.046 0.65617,-0.13758 0.17383,-0.0918 0.31035,-0.19685 0.40772,-0.31592 0.0299,0.13997 0.0955,0.2458 0.19791,0.31592 0.10213,0.0699 0.22701,0.10504 0.37597,0.10504 0.1487,0 0.28258,-0.0259 0.40164,-0.0767 v -0.47255 c -0.055,0.0175 -0.11906,0.0257 -0.19129,0.0257 -0.15717,0 -0.23548,-0.0915 -0.23548,-0.27411 z m -0.56065,-0.43444 c 0,0.22595 -0.0897,0.4101 -0.27014,0.55192 -0.18045,0.14261 -0.40429,0.21431 -0.67204,0.21431 -0.20373,0 -0.36751,-0.0426 -0.49054,-0.12753 -0.1233,-0.0852 -0.18468,-0.20849 -0.18468,-0.37015 0,-0.14923 0.0466,-0.26591 0.14049,-0.35111 0.0931,-0.0849 0.23945,-0.14657 0.44001,-0.18494 l 0.53472,-0.10265 c 0.27596,-0.0508 0.44397,-0.10822 0.50324,-0.17251 v 0.54266 z"
       fill="#000000"
       id="path53"
       style="stroke-width:0.264583" />
    <path
       d="m 101.23107,54.741748 c 0.0357,-0.0492 0.0855,-0.0733 0.14948,-0.0733 0.064,0 0.1315,0.0217 0.20373,0.064 l 0.14658,0.0833 c 0.0847,0.0468 0.16457,0.0836 0.23866,0.10848 0.0741,0.0259 0.15637,0.0384 0.24527,0.0384 0.19129,0 0.34104,-0.0651 0.44899,-0.195 0.10822,-0.13017 0.16219,-0.30506 0.16219,-0.52705 h -0.47148 c 0,0.0852 -0.0183,0.15267 -0.054,0.20109 -0.0357,0.0492 -0.0857,0.0733 -0.14975,0.0733 -0.0508,0 -0.11642,-0.0233 -0.19712,-0.0701 l -0.14631,-0.0765 c -0.17807,-0.10266 -0.34026,-0.15346 -0.48419,-0.15346 -0.19103,0 -0.34078,0.0659 -0.449,0.19764 -0.10821,0.1315 -0.16219,0.30824 -0.16219,0.52996 h 0.46488 c 0,-0.0849 0.0183,-0.1524 0.0542,-0.20082 z"
       fill="#000000"
       id="path54"
       style="stroke-width:0.264583" />
    <path
       d="m 101.85866,55.293668 c -0.22119,0 -0.42254,0.0466 -0.60537,0.14076 -0.18309,0.0934 -0.31856,0.22172 -0.40746,0.38365 v -0.42783 h -0.55404 v 3.28877 h 0.56727 v -1.90897 c 0,-0.28099 0.0773,-0.50853 0.23283,-0.68368 0.15479,-0.1741 0.37016,-0.26168 0.64612,-0.26168 0.25056,0 0.44661,0.0791 0.58896,0.23575 0.14208,0.15769 0.21378,0.38761 0.21378,0.6895 v 1.92829 h 0.56039 v -2.01163 c 0,-0.46858 -0.11139,-0.81439 -0.33417,-1.03796 -0.22304,-0.22331 -0.52573,-0.33497 -0.90831,-0.33497 z"
       fill="#000000"
       id="path55"
       style="stroke-width:0.264583" />
    <path
       d="m 106.42616,57.943738 v -1.65391 c 0,-0.28919 -0.10478,-0.52784 -0.31512,-0.71517 -0.21034,-0.18759 -0.5297,-0.28098 -0.95885,-0.28098 -0.38682,0 -0.7112,0.0974 -0.97472,0.29342 -0.26379,0.19579 -0.40349,0.4617 -0.42096,0.79772 h 0.58632 c 0.0124,-0.1958 0.0966,-0.34502 0.25215,-0.44689 0.15451,-0.10239 0.34078,-0.15319 0.55721,-0.15319 0.22939,0 0.40587,0.045 0.5289,0.13414 0.12303,0.0892 0.18468,0.20823 0.18468,0.35746 0,0.11509 -0.0352,0.19923 -0.10504,0.25267 -0.0699,0.0534 -0.177,0.095 -0.32173,0.12436 l -0.81492,0.15319 c -0.28443,0.0508 -0.51488,0.1569 -0.69109,0.31592 -0.17648,0.15927 -0.26458,0.38443 -0.26458,0.67363 0,0.28919 0.10715,0.54107 0.32173,0.71516 0.21458,0.17436 0.48921,0.26194 0.82524,0.26194 0.26352,0 0.48233,-0.046 0.65616,-0.13758 0.17383,-0.0918 0.31009,-0.19685 0.40746,-0.31592 0.0299,0.13997 0.0955,0.2458 0.19791,0.31592 0.10239,0.0699 0.22701,0.10504 0.37597,0.10504 0.1487,0 0.28258,-0.0259 0.40164,-0.0767 v -0.47255 c -0.055,0.0175 -0.11906,0.0257 -0.19129,0.0257 -0.15717,0 -0.23548,-0.0915 -0.23548,-0.27411 z m -0.56039,-0.43444 c 0,0.22595 -0.09,0.4101 -0.2704,0.55192 -0.18045,0.14261 -0.40429,0.21431 -0.67204,0.21431 -0.20373,0 -0.36751,-0.0426 -0.49054,-0.12753 -0.1233,-0.0852 -0.18468,-0.20849 -0.18468,-0.37015 0,-0.14923 0.0466,-0.26591 0.14049,-0.35111 0.0931,-0.0849 0.23945,-0.14657 0.44,-0.18494 l 0.53473,-0.10265 c 0.27622,-0.0508 0.44397,-0.10822 0.50324,-0.17251 v 0.54266 z"
       fill="#000000"
       id="path56"
       style="stroke-width:0.264583" />
    <path
       d="m 50.433448,19.142064 h -5.07312 v 22.195104 h 5.07312 z"
       fill="#000000"
       id="path57"
       style="stroke-width:0.264583" />
    <path
       d="m 66.320348,37.178178 c -0.76014,0.53208 -1.78461,0.79693 -3.07366,0.79693 -1.46209,0 -2.65139,-0.34502 -3.5687,-1.03452 -0.91731,-0.68924 -1.43378,-1.60867 -1.54755,-2.75828 h -5.15964 c 0.0283,1.52294 0.47308,2.87337 1.33297,4.0513 0.8599,1.17871 2.0492,2.09735 3.5687,2.75854 1.51871,0.66014 3.2385,0.99113 5.15964,0.99113 2.89507,0 5.20938,-0.67442 6.94346,-2.02565 1.73408,-1.35043 2.60139,-3.13108 2.60139,-5.34432 0,-1.72402 -0.48737,-3.12446 -1.46209,-4.20238 -0.97473,-1.07685 -2.40771,-1.759739 -4.29948,-2.047341 l -5.24537,-0.818621 c -1.00383,-0.172508 -1.71979,-0.437621 -2.14974,-0.796925 -0.42994,-0.359304 -0.64452,-0.868627 -0.64452,-1.529556 0,-0.832908 0.35825,-1.508919 1.07447,-2.025915 0.71596,-0.516731 1.69069,-0.776023 2.92391,-0.776023 1.31842,0 2.38602,0.316707 3.20358,0.948002 0.81677,0.632619 1.26841,1.480344 1.35493,2.542382 h 5.15937 c -0.0855,-2.269067 -0.98874,-4.072996 -2.70854,-5.408613 -1.71979,-1.336146 -3.99864,-2.003954 -6.8363,-2.003954 -1.83462,0 -3.45466,0.295275 -4.85854,0.883708 -1.40468,0.589492 -2.49397,1.415521 -3.26761,2.478352 -0.77417,1.063625 -1.16099,2.29923 -1.16099,3.706284 0,1.69545 0.50165,3.067579 1.50469,4.11559 1.00277,1.04934 2.49396,1.73144 4.47172,2.04735 l 5.11625,0.81862 c 0.97393,0.17251 1.66925,0.44582 2.08491,0.81862 0.41513,0.37333 0.62389,0.91943 0.62389,1.63804 0,0.91942 -0.38021,1.64465 -1.13929,2.17646 z"
       fill="#000000"
       id="path58"
       style="stroke-width:0.264583" />
    <path
       d="m 87.060508,41.984068 c 2.06402,0 3.88382,-0.49609 5.46047,-1.48722 1.57612,-0.99113 2.78765,-2.37754 3.63352,-4.15898 0.84508,-1.78144 1.26842,-3.82032 1.26842,-6.11955 0,-2.298967 -0.41593,-4.331496 -1.24672,-6.098648 -0.83158,-1.767152 -2.03597,-3.14616 -3.61183,-4.137289 -1.57691,-0.991129 -3.43984,-1.487223 -5.58958,-1.487223 -1.31895,0 -2.60906,0.287602 -3.8698,0.862012 -1.26153,0.575204 -2.23546,1.393825 -2.92391,2.456657 V 13.16592 h -5.07312 v 28.172038 h 4.85854 v -2.88766 c 0.71597,1.14961 1.71979,2.02565 3.00964,2.62943 1.28984,0.60351 2.65139,0.90514 4.08437,0.90514 z m -5.43904,-6.50795 c -1.16099,-1.26392 -1.74149,-3.01705 -1.74149,-5.2578 0,-2.240758 0.5805,-3.914512 1.74149,-5.193244 1.16099,-1.277937 2.65801,-1.918229 4.49342,-1.918229 1.83541,0 3.43218,0.625211 4.53575,1.874838 1.10279,1.249627 1.65497,2.995083 1.65497,5.236635 0,2.24181 -0.55218,3.99388 -1.65497,5.2578 -1.10357,1.26444 -2.61646,1.89627 -4.53575,1.89627 -1.91955,0 -3.33243,-0.63183 -4.49342,-1.89627 z"
       fill="#000000"
       id="path59"
       style="stroke-width:0.264583" />
    <path
       d="m 120.69911,23.62437 c -0.9316,-1.638035 -2.23573,-2.901685 -3.91319,-3.792802 -1.6764,-0.890323 -3.60521,-1.33641 -5.78247,-1.33641 -2.17726,0 -4.06347,0.488688 -5.73987,1.465527 -1.67666,0.977106 -2.98159,2.349235 -3.91292,4.115594 -0.9316,1.767416 -1.397272,3.786452 -1.397272,6.055519 0,2.38495 0.465672,4.46802 1.397272,6.24866 0.93133,1.78224 2.24948,3.16125 3.95525,4.13729 1.70498,0.97605 3.69015,1.46553 5.95472,1.46553 2.75193,0 5.04481,-0.65352 6.87943,-1.96083 1.83382,-1.30704 3.03794,-3.1242 3.61182,-5.45174 h -5.15964 c -0.34422,1.03452 -0.96705,1.83886 -1.87034,2.41327 -0.90328,0.5752 -2.02829,0.86201 -3.37476,0.86201 -1.83462,0 -3.30438,-0.53102 -4.40716,-1.59464 -1.10358,-1.06283 -1.71318,-2.51434 -1.82695,-4.35319 h 16.8111 c 0.11377,-0.6895 0.17198,-1.53644 0.17198,-2.54265 v -0.0857 c 0,-2.125666 -0.46646,-4.008176 -1.397,-5.646211 z m -15.58528,4.439179 c 0.14314,-1.724025 0.75274,-3.074458 1.82721,-4.0513 1.07447,-0.976312 2.44343,-1.465527 4.1058,-1.465527 1.66238,0 3.11706,0.502709 4.19233,1.508655 1.07447,1.00621 1.62665,2.34262 1.65496,4.008172 z"
       fill="#000000"
       id="path60"
       style="stroke-width:0.264583" />
  </g>
</svg>
